<svg xmlns="http://www.w3.org/2000/svg" width="24" height="24.002" viewBox="0 0 24 24.002">
  <path id="bouton-ajouter" d="M26.5,5.611A3.111,3.111,0,0,0,23.39,2.5H5.612A3.111,3.111,0,0,0,2.5,5.611V23.391A3.111,3.111,0,0,0,5.613,26.5H23.39A3.111,3.111,0,0,0,26.5,23.39ZM13.168,13.167H10.057a1.333,1.333,0,1,0,0,2.667h3.111v3.111a1.333,1.333,0,0,0,2.667,0V15.834h3.111a1.333,1.333,0,0,0,0-2.667H15.834V10.056a1.333,1.333,0,0,0-2.667,0Z" transform="translate(-2.501 -2.5)" fill-rule="evenodd"/>
</svg>
