<svg xmlns="http://www.w3.org/2000/svg" width="22" height="21.997" viewBox="0 0 22 21.997">
  <g id="bouton-verifie" transform="translate(0 -0.002)">
    <path id="Tracé_31948" data-name="Tracé 31948" d="M11,0A11,11,0,1,0,22,11,11,11,0,0,0,11,0ZM9.348,17.556a.631.631,0,0,1-.889,0l-.2-.2h0l-.214-.213-.92-.92L7.113,16.2,2.891,11.951a.626.626,0,0,1,0-.887l1.33-1.33a.625.625,0,0,1,.888,0l3.8,3.825L16.89,5.575a.626.626,0,0,1,.886,0l1.33,1.332a.627.627,0,0,1,0,.888Z" fill="#003753"/>
  </g>
</svg>
