<svg id="delegate" xmlns="http://www.w3.org/2000/svg" width="22" height="22" viewBox="0 0 22 22">
  <path id="Tracé_31942" data-name="Tracé 31942" d="M3.088,411.782a2.774,2.774,0,0,1-2.131-1A3.079,3.079,0,0,0,0,413.017v1.853H6.176v-1.853a3.079,3.079,0,0,0-.958-2.232A2.774,2.774,0,0,1,3.088,411.782Z" transform="translate(0 -392.87)" fill="#003753"/>
  <path id="Tracé_31943" data-name="Tracé 31943" d="M365.219,410.785a2.775,2.775,0,0,1-4.261,0,3.079,3.079,0,0,0-.958,2.232v1.853h6.176v-1.853A3.079,3.079,0,0,0,365.219,410.785Z" transform="translate(-344.176 -392.87)" fill="#003753"/>
  <ellipse id="Ellipse_46" data-name="Ellipse 46" cx="0.498" cy="0.746" rx="0.498" ry="0.746" transform="translate(10.45 3.767)" fill="#003753"/>
  <path id="Tracé_31944" data-name="Tracé 31944" d="M211.853,150A1.855,1.855,0,0,0,210,151.853v.618h3.706v-.618A1.855,1.855,0,0,0,211.853,150Z" transform="translate(-200.853 -143.49)" fill="#003753"/>
  <path id="Tracé_31945" data-name="Tracé 31945" d="M50.959,12.429l2.247,2.306a1.465,1.465,0,0,0-.055.4,1.633,1.633,0,1,0,1.63-1.544,1.692,1.692,0,0,0-.749.173l-2.061-2.115a6.6,6.6,0,0,0,2.158-4.853,7.184,7.184,0,0,0-14.347,0,6.6,6.6,0,0,0,2.158,4.853L39.88,13.762a1.693,1.693,0,0,0-.749-.173,1.546,1.546,0,1,0,1.63,1.544,1.464,1.464,0,0,0-.055-.4l2.247-2.306a7.493,7.493,0,0,0,8.006,0ZM43.7,8.029a3.065,3.065,0,0,1,1.635-2.676A1.774,1.774,0,0,1,45,4.324a1.959,1.959,0,0,1,3.913,0,1.774,1.774,0,0,1-.331,1.03,3.065,3.065,0,0,1,1.635,2.676V9.882H43.7Z" transform="translate(-35.956)" fill="#003753"/>
</svg>
