<svg xmlns="http://www.w3.org/2000/svg" width="64" height="62" viewBox="0 0 64 62">
  <g id="email" transform="translate(0 0)">
    <path id="Tracé_2158" data-name="Tracé 2158" d="M8.75,17.612V29.918A1.989,1.989,0,0,0,12.343,31.1l7.2-9.8Z" transform="translate(14.607 30.092)" fill="#fafafa"/>
    <path id="Tracé_2159" data-name="Tracé 2159" d="M63.16.376A1.979,1.979,0,0,0,61.075.23l-60,31.748a2.038,2.038,0,0,0,.277,3.715l16.68,5.777L53.555,10.695,26.067,44.251l27.955,9.681a2.022,2.022,0,0,0,.645.108,1.989,1.989,0,0,0,1.04-.295,2.038,2.038,0,0,0,.939-1.432L63.979,2.327A2.042,2.042,0,0,0,63.16.376Z" transform="translate(0 0)" fill="#fafafa"/>
  </g>
</svg>
