<svg xmlns="http://www.w3.org/2000/svg" width="18" height="16" viewBox="0 0 18 16">
  <g id="exporter" transform="translate(0 -18.5)">
    <path id="XMLID_222_" d="M8.7,29.846a.727.727,0,1,1,0-1.455h4.721v-3.1H7.206a.737.737,0,0,1-.745-.727V18.5H.745A.737.737,0,0,0,0,19.227V33.773a.737.737,0,0,0,.745.727H12.672a.737.737,0,0,0,.745-.727V29.846H8.7Z"/>
    <path id="XMLID_223_" d="M274.579,187.412c0-.011,0-.021,0-.031s0-.025-.006-.037-.006-.024-.009-.035-.005-.021-.008-.032-.008-.023-.012-.034-.007-.021-.012-.032-.009-.02-.014-.031-.01-.022-.016-.032l-.017-.028-.019-.031-.022-.03-.019-.026q-.021-.026-.045-.05l0,0L272.6,185.21a.709.709,0,0,0-1,1l.562.562H270v1.417h2.163l-.562.562a.709.709,0,1,0,1,1l1.771-1.771h0q.024-.024.046-.051l.019-.026.022-.03c.007-.01.013-.021.019-.031l.017-.028c.006-.011.011-.022.016-.033s.01-.02.014-.03.008-.021.012-.032.008-.022.012-.033.006-.021.008-.032.006-.023.009-.035,0-.025.006-.037,0-.021,0-.031,0-.046,0-.069h0Q274.582,187.447,274.579,187.412Z" transform="translate(-256.582 -158.333)"/>
    <path id="XMLID_224_" d="M164.781,32.068,160,27.287v4.781h4.781Z" transform="translate(-152.042 -8.372)"/>
  </g>
</svg>
