<svg xmlns="http://www.w3.org/2000/svg" width="24" height="24" viewBox="0 0 24 24">
  <g id="historique" transform="translate(-2.049 -2)">
    <path id="Tracé_133373" data-name="Tracé 133373" d="M14.66,22.319A7.66,7.66,0,1,0,7,14.66a7.66,7.66,0,0,0,7.66,7.66Zm-.851-10.213a.851.851,0,0,1,1.7,0v2.2l1.557,1.557a.855.855,0,1,1-1.209,1.209l-1.8-1.8a.886.886,0,0,1-.247-.6Z" transform="translate(-0.633 -0.639)" fill="#00aac7"/>
    <path id="Tracé_133374" data-name="Tracé 133374" d="M14.027,2a.859.859,0,1,0,0,1.717,10.346,10.346,0,1,1-7.138,2.9l-.058.444a.859.859,0,1,0,1.7.223l.334-2.554a.894.894,0,0,0-.74-.963L5.574,3.431a.859.859,0,1,0-.222,1.7l.535.07A12,12,0,1,0,14.027,2Z" fill="#00aac7"/>
  </g>
</svg>
