<svg xmlns="http://www.w3.org/2000/svg" width="24" height="24.002" viewBox="0 0 24 24.002">
  <path id="home" d="M23.355,10.44l0,0L13.562.648a2.209,2.209,0,0,0-3.125,0L.651,10.433l-.01.01a2.209,2.209,0,0,0,1.47,3.765q.034,0,.068,0h.39v7.205A2.589,2.589,0,0,0,5.156,24H8.987a.7.7,0,0,0,.7-.7V17.65a1.181,1.181,0,0,1,1.18-1.18h2.259a1.181,1.181,0,0,1,1.18,1.18V23.3a.7.7,0,0,0,.7.7h3.831a2.589,2.589,0,0,0,2.586-2.586V14.211h.362a2.21,2.21,0,0,0,1.564-3.771Zm0,0" transform="translate(0.001)"/>
</svg>
