<svg xmlns="http://www.w3.org/2000/svg" width="36" height="36" viewBox="0 0 36 36">
  <g id="notif-shop" transform="translate(7 7)">
    <rect id="Rectangle_275" data-name="Rectangle 275" width="36" height="36" rx="4" transform="translate(-7 -7)" fill="#23eca3" opacity="0.08"/>
    <g id="Glyph">
      <path id="Tracé_2163" data-name="Tracé 2163" d="M22,32H0v.936a1.853,1.853,0,0,0,1.833,1.873h2.75a1.853,1.853,0,0,0,1.833-1.873A1.853,1.853,0,0,0,8.25,34.809h5.5a1.853,1.853,0,0,0,1.833-1.873,1.853,1.853,0,0,0,1.833,1.873h2.75A1.853,1.853,0,0,0,22,32.936V32Z" transform="translate(0 -24.689)" fill="#23eca3"/>
      <path id="Tracé_2164" data-name="Tracé 2164" d="M72.548,6.555,70.869.679a.936.936,0,0,0-.9-.679H65.679L66.99,6.555Z" transform="translate(-50.778 0)" fill="#23eca3"/>
      <path id="Tracé_2165" data-name="Tracé 2165" d="M7.852,0H3.562a.936.936,0,0,0-.9.679L.983,6.555H6.541Z" transform="translate(-0.753 0)" fill="#23eca3"/>
      <path id="Tracé_2166" data-name="Tracé 2166" d="M38.648,0H34.19L32.879,6.555h7.08Z" transform="translate(-25.419 0)" fill="#23eca3"/>
      <path id="Tracé_2167" data-name="Tracé 2167" d="M20.468,45.654a2.7,2.7,0,0,1-1.83-.717,2.7,2.7,0,0,1-1.83.717H11.319a2.7,2.7,0,0,1-1.83-.717,2.7,2.7,0,0,1-1.83.717H4.915A2.671,2.671,0,0,1,4,45.49V55.955a.926.926,0,0,0,.915.936h1.83V48.464a.926.926,0,0,1,.915-.936h4.574a.926.926,0,0,1,.915.936v8.428H23.212a.926.926,0,0,0,.915-.936V45.49a2.671,2.671,0,0,1-.915.164Zm.915,5.619a.926.926,0,0,1-.915.936H15.893a.926.926,0,0,1-.915-.936V48.464a.926.926,0,0,1,.915-.936h4.574a.926.926,0,0,1,.915.936Z" transform="translate(-3.064 -34.892)" fill="#23eca3"/>
    </g>
  </g>
</svg>
