<svg xmlns="http://www.w3.org/2000/svg" width="24" height="20" viewBox="0 0 24 20">
  <g id="option-de-deconnexion" transform="translate(0 -41.115)">
    <g id="Groupe_605" data-name="Groupe 605" transform="translate(0 41.115)">
      <path id="Tracé_31912" data-name="Tracé 31912" d="M10.178,59.615a.4.4,0,0,1-.032-.211c.011-.057-.026-.1-.111-.14s-.127-.065-.127-.086-.061-.036-.183-.047l-.183-.016H4.58a2.471,2.471,0,0,1-1.8-.735,2.386,2.386,0,0,1-.747-1.765v-11a2.386,2.386,0,0,1,.747-1.765,2.472,2.472,0,0,1,1.8-.735H9.669a.486.486,0,0,0,.326-.1.516.516,0,0,0,.159-.3,2.586,2.586,0,0,0,.048-.367,3.819,3.819,0,0,0-.008-.414q-.016-.25-.016-.313a.477.477,0,0,0-.151-.352.494.494,0,0,0-.358-.148H4.58a4.451,4.451,0,0,0-3.236,1.32A4.3,4.3,0,0,0,0,45.615v11a4.3,4.3,0,0,0,1.344,3.179A4.45,4.45,0,0,0,4.58,61.115H9.669a.488.488,0,0,0,.326-.1.516.516,0,0,0,.159-.3,2.59,2.59,0,0,0,.048-.367,3.816,3.816,0,0,0-.008-.414Q10.178,59.677,10.178,59.615Z" transform="translate(0 -41.115)"/>
      <path id="Tracé_31913" data-name="Tracé 31913" d="M128.16,59.035l-8.651-8.492a1.012,1.012,0,0,0-1.431,0,.952.952,0,0,0-.3.7v4.5h-7.124a.988.988,0,0,0-.716.3.952.952,0,0,0-.3.7v5.995a.951.951,0,0,0,.3.7.989.989,0,0,0,.716.3h7.124v4.5a.951.951,0,0,0,.3.7,1.011,1.011,0,0,0,1.431,0l8.651-8.492a.968.968,0,0,0,0-1.405Z" transform="translate(-104.462 -49.737)"/>
    </g>
  </g>
</svg>
