<svg id="place_1_" data-name="place (1)" xmlns="http://www.w3.org/2000/svg" width="16" height="22" viewBox="0 0 16 22">
  <g id="Groupe_567" data-name="Groupe 567">
    <path id="Tracé_13888" data-name="Tracé 13888" d="M68,0a8.228,8.228,0,0,0-8,8.422,8.762,8.762,0,0,0,1.079,4.226,8.506,8.506,0,0,0,.547.863L67.652,22h.7l6.027-8.489a8.523,8.523,0,0,0,.547-.863A8.762,8.762,0,0,0,76,8.422,8.228,8.228,0,0,0,68,0Zm0,11.215a2.729,2.729,0,0,1-2.653-2.793,2.657,2.657,0,1,1,5.306,0A2.729,2.729,0,0,1,68,11.215Z" transform="translate(-60)" fill="#003753"/>
  </g>
</svg>
