<svg id="plein-ecran" xmlns="http://www.w3.org/2000/svg" width="16" height="16" viewBox="0 0 16 16">
  <g id="Fullscreen">
    <path id="Tracé_3606" data-name="Tracé 3606" d="M258.61.519A.515.515,0,0,0,258.091,0h-4.663a.513.513,0,0,0-.515.527.5.5,0,0,0,.515.511h4.144L257.563,5.2a.519.519,0,0,0,1.038,0L258.61.527s0,0,0,0S258.61.521,258.61.519Z" transform="translate(-242.61)"/>
    <path id="Tracé_3607" data-name="Tracé 3607" d="M5.2,0H.527A.515.515,0,0,0,.008.519L0,5.194a.512.512,0,0,0,.527.515.5.5,0,0,0,.511-.515l.008-4.156H5.2A.509.509,0,0,0,5.717.519.509.509,0,0,0,5.2,0Z"/>
    <path id="Tracé_3608" data-name="Tracé 3608" d="M5.182,257.308H1.038v-4.152a.509.509,0,0,0-.519-.519.509.509,0,0,0-.519.519v4.663s0,0,0,0,0,0,0,0a.515.515,0,0,0,.519.519H5.182a.513.513,0,0,0,.515-.527A.5.5,0,0,0,5.182,257.308Z" transform="translate(0 -242.346)"/>
    <path id="Tracé_3609" data-name="Tracé 3609" d="M257.818,252.913a.5.5,0,0,0-.511.515v4.144h-4.152a.519.519,0,1,0,0,1.038h4.671a.515.515,0,0,0,.519-.519v-4.663A.512.512,0,0,0,257.818,252.913Z" transform="translate(-242.346 -242.61)"/>
  </g>
</svg>
