<svg xmlns="http://www.w3.org/2000/svg" width="26" height="23.834" viewBox="0 0 26 23.834">
  <g id="remarques" transform="translate(0 -21.327)">
    <g id="Groupe_38288" data-name="Groupe 38288" transform="translate(0 21.327)">
      <path id="Tracé_133375" data-name="Tracé 133375" d="M26,42.423l-1.083-19.5a.541.541,0,0,0-.185-.379.525.525,0,0,0-.4-.131l-8.256.688a2.7,2.7,0,0,0-5.189.431l-.208.017-6.8-1.132a.537.537,0,0,0-.622.44L.008,41.275a.542.542,0,0,0,.444.628l4.86.81.1,1.934a.545.545,0,0,0,.541.514.531.531,0,0,0,.06,0l8.377-.931,5.559.926a.631.631,0,0,0,.09.008.543.543,0,0,0,.533-.447l.211-1.2,4.732-.525A.541.541,0,0,0,26,42.423ZM13.541,22.413a1.621,1.621,0,0,1,1.385.785l-2.893.242A1.626,1.626,0,0,1,13.541,22.413Zm6.373,19.814L19.6,44,1.169,40.926,4.231,23.577,15.166,25.4v4.055a1.625,1.625,0,0,1-3.25,0V27.288a.542.542,0,0,0-1.083,0v2.167a2.708,2.708,0,0,0,5.417,0V25.58l6.413,1.069Z" transform="translate(0 -21.327)" fill="#00aac7"/>
    </g>
  </g>
</svg>
