<svg xmlns="http://www.w3.org/2000/svg" width="21" height="24" viewBox="0 0 21 24">
  <g id="Supprimer-2" transform="translate(2.5 4)">
    <g id="_x39_5.Trash" transform="translate(-39.75 -10)">
      <path id="Tracé_31914" data-name="Tracé 31914" d="M57.5,7.489H51.875l-.441-.87A1.126,1.126,0,0,0,50.427,6H45.069a1.113,1.113,0,0,0-1,.619l-.441.87H38a.747.747,0,0,0-.75.745V9.723a.747.747,0,0,0,.75.745H57.5a.747.747,0,0,0,.75-.745V8.234A.747.747,0,0,0,57.5,7.489Z" transform="translate(0)" fill="#00aac7"/>
      <path id="Tracé_31915" data-name="Tracé 31915" d="M68.5,146.637a2.243,2.243,0,0,0,2.253,2.234H84.269a2.243,2.243,0,0,0,2.253-2.234V131H68.5Zm12.765-11.914a.751.751,0,0,1,1.5,0v10.425a.751.751,0,0,1-1.5,0Zm-4.505,0a.751.751,0,0,1,1.5,0v10.425a.751.751,0,0,1-1.5,0Zm-4.505,0a.751.751,0,0,1,1.5,0v10.425a.751.751,0,0,1-1.5,0Z" transform="translate(-29.761 -118.871)" fill="#00aac7"/>
    </g>
  </g>
</svg>
