<svg xmlns="http://www.w3.org/2000/svg" width="24" height="24" viewBox="0 0 24 24">
  <g id="Supprimer" transform="translate(4 4)">
    <rect id="Rectangle_275" data-name="Rectangle 275" width="24" height="24" rx="4" transform="translate(-4 -4)" fill="#00aac7"/>
    <g id="_x39_5.Trash" transform="translate(-36.25 -6)">
      <path id="Tracé_31914" data-name="Tracé 31914" d="M50.75,6.993H47l-.294-.58A.751.751,0,0,0,46.034,6H42.463a.742.742,0,0,0-.669.413l-.294.58H37.75a.5.5,0,0,0-.5.5v.993a.5.5,0,0,0,.5.5h13a.5.5,0,0,0,.5-.5V7.489A.5.5,0,0,0,50.75,6.993Z" fill="#fff"/>
      <path id="Tracé_31915" data-name="Tracé 31915" d="M68.5,141.425a1.5,1.5,0,0,0,1.5,1.489h9.011a1.5,1.5,0,0,0,1.5-1.489V131H68.5Zm8.51-7.943a.5.5,0,0,1,1,0v6.95a.5.5,0,0,1-1,0Zm-3,0a.5.5,0,0,1,1,0v6.95a.5.5,0,0,1-1,0Zm-3,0a.5.5,0,0,1,1,0v6.95a.5.5,0,0,1-1,0Z" transform="translate(-30.257 -120.914)" fill="#fff"/>
    </g>
  </g>
</svg>
