<svg xmlns="http://www.w3.org/2000/svg" width="10" height="14" viewBox="0 0 10 14">
  <g id="trier" transform="translate(-6 -2)">
    <path id="Tracé_133279" data-name="Tracé 133279" d="M6.5,7.893h9a.5.5,0,0,0,.462-.331.564.564,0,0,0-.108-.584l-4.5-4.821a.477.477,0,0,0-.707,0l-4.5,4.821a.564.564,0,0,0-.108.584.5.5,0,0,0,.462.331Z" transform="translate(0 0)" fill="#003753"/>
    <path id="Tracé_133280" data-name="Tracé 133280" d="M15.5,19h-9a.5.5,0,0,0-.462.331.564.564,0,0,0,.108.584l4.5,4.821a.477.477,0,0,0,.707,0l4.5-4.821a.564.564,0,0,0,.108-.584A.5.5,0,0,0,15.5,19Z" transform="translate(0 -8.893)" fill="#003753"/>
  </g>
</svg>
