<svg xmlns="http://www.w3.org/2000/svg" width="24" height="24" viewBox="0 0 24 24">
  <g id="user" transform="translate(-3 -3)">
    <path id="Tracé_2161" data-name="Tracé 2161" d="M11.674,14.708a6.381,6.381,0,0,0,3.781,1.229,6.6,6.6,0,0,0,6.455-6.469,6.455,6.455,0,1,0-10.236,5.24Z" transform="translate(-0.455 0)" fill="#fff"/>
    <path id="Tracé_2162" data-name="Tracé 2162" d="M20.686,16.55a8.272,8.272,0,0,1-11.372,0A12.033,12.033,0,0,0,3,27.131a.926.926,0,0,0,.923.924H26.077A.926.926,0,0,0,27,27.131,12.033,12.033,0,0,0,20.686,16.55Z" transform="translate(0 -1.055)" fill="#fff"/>
  </g>
</svg>
