<svg xmlns="http://www.w3.org/2000/svg" width="24" height="24" viewBox="0 0 24 24">
  <g id="user-blanc" transform="translate(-3 -3)">
    <path id="Tracé_2161" data-name="Tracé 2161" d="M11.581,15.184a5.864,5.864,0,0,0,3.649,1.279c3.33,0,6.23-3.115,6.23-6.732A6.5,6.5,0,0,0,15.23,3,6.5,6.5,0,0,0,9,9.732,6.892,6.892,0,0,0,11.581,15.184Z" transform="translate(-0.23 0)" fill="#fff"/>
    <path id="Tracé_2162" data-name="Tracé 2162" d="M20.686,16.55a8.04,8.04,0,0,1-11.372,0A12.6,12.6,0,0,0,3,27.561a.946.946,0,0,0,.923.962H26.077A.946.946,0,0,0,27,27.561,12.6,12.6,0,0,0,20.686,16.55Z" transform="translate(0 -1.523)" fill="#fff"/>
  </g>
</svg>
