<svg xmlns="http://www.w3.org/2000/svg" width="16" height="16" viewBox="0 0 16 16">
  <g id="zoom-croissant-symbole" transform="translate(-0.007)">
    <g id="_x35__33_" transform="translate(0.007)">
      <g id="Groupe_54" data-name="Groupe 54" transform="translate(0)">
        <path id="Tracé_3605" data-name="Tracé 3605" d="M9.268,6.207h-2v-2a.5.5,0,1,0-1,0v2h-2c-.276,0-.5.091-.5.368s.224.634.5.634h2v2a.5.5,0,1,0,1,0v-2h2a.5.5,0,0,0,0-1Zm6.587,8.923-4.131-4.065a6.534,6.534,0,0,0,1.746-4.44A6.679,6.679,0,0,0,6.739,0,6.679,6.679,0,0,0,.007,6.625a6.679,6.679,0,0,0,6.732,6.625,6.77,6.77,0,0,0,4.237-1.479l4.147,4.081a.524.524,0,0,0,.732,0A.5.5,0,0,0,15.855,15.13Zm-9.116-2.9a5.651,5.651,0,0,1-5.7-5.605,5.651,5.651,0,0,1,5.7-5.605,5.651,5.651,0,0,1,5.7,5.605A5.651,5.651,0,0,1,6.739,12.23Z" transform="translate(-0.007)"/>
      </g>
    </g>
  </g>
</svg>
