<svg xmlns="http://www.w3.org/2000/svg" width="16" height="16" viewBox="0 0 16 16">
  <path id="appel-telephonique_2_" data-name="appel-telephonique (2)" d="M16.485,12.52c-.044-.035-3.219-2.323-4.09-2.159-.416.074-.654.357-1.131.925-.077.092-.261.311-.4.468a6.676,6.676,0,0,1-.881-.358A7.307,7.307,0,0,1,6.607,8.025a6.644,6.644,0,0,1-.358-.881c.157-.144.377-.329.47-.407.565-.475.85-.713.923-1.13.151-.864-2.136-4.061-2.16-4.09A1.221,1.221,0,0,0,4.573,1C3.646,1,1,4.433,1,5.011c0,.034.049,3.449,4.26,7.733C9.54,16.951,12.955,17,12.989,17,13.567,17,17,14.354,17,13.427a1.218,1.218,0,0,0-.515-.907Z" transform="translate(-1 -1)" fill="#00aac7"/>
</svg>
