<svg xmlns="http://www.w3.org/2000/svg" width="26" height="24" viewBox="0 0 26 24">
  <g id="billets" transform="translate(-2 -5.003)">
    <path id="Tracé_133428" data-name="Tracé 133428" d="M2.591,33.93H27.409A.607.607,0,0,0,28,33.308V28.953a.607.607,0,0,0-.591-.622H26.227a1.869,1.869,0,0,1,0-3.732h1.182A.607.607,0,0,0,28,23.977V19.622A.607.607,0,0,0,27.409,19H2.591A.607.607,0,0,0,2,19.622v4.354a.607.607,0,0,0,.591.622H3.773a1.869,1.869,0,0,1,0,3.732H2.591A.607.607,0,0,0,2,28.953v4.355A.607.607,0,0,0,2.591,33.93ZM19.727,22.11a.592.592,0,1,1,1.182,0v1.244a.592.592,0,1,1-1.182,0Zm0,3.732a.592.592,0,1,1,1.182,0v1.244a.592.592,0,1,1-1.182,0Zm0,3.732a.592.592,0,1,1,1.182,0v1.244a.592.592,0,1,1-1.182,0ZM9.682,22.732h7.091a.623.623,0,0,1,0,1.244H9.682a.623.623,0,0,1,0-1.244Zm0,3.11h7.091a.623.623,0,0,1,0,1.244H9.682a.623.623,0,0,1,0-1.244Zm0,3.11h7.091a.623.623,0,0,1,0,1.244H9.682a.623.623,0,0,1,0-1.244Z" transform="translate(0 -4.927)" fill="#fff"/>
    <path id="Tracé_133429" data-name="Tracé 133429" d="M8.059,5.387,6.544,9.411a.634.634,0,0,0,0,.479.6.6,0,0,0,.308.336l1.071.473a1.883,1.883,0,0,1,1.036,1.767H25.286L8.805,5.051a.525.525,0,0,0-.437,0,.6.6,0,0,0-.309.337Z" transform="translate(-1.7 0)" fill="#fff"/>
  </g>
</svg>
