<svg id="carte-cadeau" xmlns="http://www.w3.org/2000/svg" width="56" height="40" viewBox="0 0 56 40">
  <path id="Tracé_134182" data-name="Tracé 134182" d="M15.917,0,0,15.917v5.363L21.279,0Zm0,0" fill="#003753"/>
  <path id="Tracé_134183" data-name="Tracé 134183" d="M365.381,91.691a1.691,1.691,0,1,0-3.381,0v1.691h1.691A1.692,1.692,0,0,0,365.381,91.691Zm0,0" transform="translate(-322.482 -80.013)" fill="#003753"/>
  <path id="Tracé_134184" data-name="Tracé 134184" d="M5.072,0A5.078,5.078,0,0,0,0,5.072v6.063L11.135,0Zm0,0" fill="#003753"/>
  <path id="Tracé_134185" data-name="Tracé 134185" d="M51.078,0H25.4L0,25.69V35a4.967,4.967,0,0,0,4.922,5H51.078A4.967,4.967,0,0,0,56,35V5A4.967,4.967,0,0,0,51.078,0ZM18.047,33.333H8.2A1.667,1.667,0,0,1,8.2,30h9.844a1.667,1.667,0,0,1,0,3.333Zm0-6.667H8.2a1.667,1.667,0,0,1,0-3.333h9.844a1.667,1.667,0,0,1,0,3.333Zm31.391-5A1.653,1.653,0,0,1,47.8,23.333H46.156v8.333a1.653,1.653,0,0,1-1.641,1.667H31.391a1.653,1.653,0,0,1-1.641-1.667V23.333H28.109a1.653,1.653,0,0,1-1.641-1.667V15a1.653,1.653,0,0,1,1.641-1.667h1.943a4.962,4.962,0,0,1,4.62-6.667,4.843,4.843,0,0,1,3.281,1.3,4.843,4.843,0,0,1,3.281-1.3,4.962,4.962,0,0,1,4.62,6.667H47.8A1.653,1.653,0,0,1,49.438,15Zm0,0" fill="#003753"/>
  <path id="Tracé_134186" data-name="Tracé 134186" d="M303.691,93.381h1.691V91.691a1.691,1.691,0,1,0-1.691,1.691Zm0,0" transform="translate(-269.032 -80.013)" fill="#003753"/>
  <path id="Tracé_134187" data-name="Tracé 134187" d="M361.85,153.381h6.763V150H361.85Zm0,0" transform="translate(-322.417 -133.355)" fill="#003753"/>
  <path id="Tracé_134188" data-name="Tracé 134188" d="M278.651,150h-6.763v3.381h6.763Zm0,0" transform="translate(-242.258 -133.355)" fill="#003753"/>
  <path id="Tracé_134189" data-name="Tracé 134189" d="M308.763,211.691a1.691,1.691,0,0,1-3.381,0V210H302v6.763h10.144V210h-3.381Zm0,0" transform="translate(-269.184 -186.734)" fill="#003753"/>
</svg>
