<svg xmlns="http://www.w3.org/2000/svg" width="50" height="50" viewBox="0 0 50 50">
  <path id="refund" d="M25,0A25,25,0,1,0,50,25,25,25,0,0,0,25,0ZM40.925,32.2a17.487,17.487,0,0,1-33.35-5.525l-.45.45a1.237,1.237,0,0,1-1.75-1.75l2.5-2.5a1.209,1.209,0,0,1,1.75,0l2.5,2.5a1.237,1.237,0,1,1-1.75,1.75l-.25-.225A14.984,14.984,0,0,0,38.65,31.175,1.248,1.248,0,1,1,40.925,32.2ZM18.749,25a4.7,4.7,0,0,1,.075-.625h-.075a1.25,1.25,0,1,1,0-2.5h.7a7.5,7.5,0,0,1,6.8-4.375,6.09,6.09,0,0,1,4.625,2.15,1.26,1.26,0,0,1,.025,1.775,1.238,1.238,0,0,1-1.775,0A3.657,3.657,0,0,0,26.249,20a5.008,5.008,0,0,0-3.875,1.875H25a1.25,1.25,0,1,1,0,2.5H21.323a2.636,2.636,0,0,0,0,1.25H25a1.25,1.25,0,1,1,0,2.5H22.374A5.008,5.008,0,0,0,26.249,30a3.658,3.658,0,0,0,2.875-1.425,1.246,1.246,0,1,1,1.75,1.775,6.09,6.09,0,0,1-4.625,2.15,7.5,7.5,0,0,1-6.8-4.375h-.7a1.25,1.25,0,1,1,0-2.5h.075A4.7,4.7,0,0,1,18.749,25Zm23.376,2.125a1.207,1.207,0,0,1-1.75,0l-2.5-2.5a1.238,1.238,0,1,1,1.75-1.75l.25.225A14.984,14.984,0,0,0,11.35,18.825,1.247,1.247,0,0,1,9.075,17.8a17.487,17.487,0,0,1,33.35,5.525l.45-.45a1.238,1.238,0,1,1,1.75,1.75Zm0,0" fill="#fff"/>
</svg>
