<svg id="cinema" xmlns="http://www.w3.org/2000/svg" width="40" height="40" viewBox="0 0 40 40">
  <path id="Tracé_134179" data-name="Tracé 134179" d="M34.063,301a5.972,5.972,0,0,0-5.859,6.066v3.72H25.859v-3.72A5.972,5.972,0,0,0,20,301a5.972,5.972,0,0,0-5.859,6.066v3.72H11.8v-3.72A5.972,5.972,0,0,0,5.938,301,6.038,6.038,0,0,0,0,307.066v6.147H4.766v2.426H2.422v2.426H9.453v-2.426H7.109v-2.426H18.828v2.426H16.484v2.426h7.031v-2.426H21.172v-2.426H32.891v2.426H30.547v2.426h7.031v-2.426H35.234v-2.426H40v-6.147A6.038,6.038,0,0,0,34.063,301Z" transform="translate(0 -278.066)" fill="#003753"/>
  <path id="Tracé_134180" data-name="Tracé 134180" d="M241,117.5v2.993l2.5-1.5Z" transform="translate(-222.214 -108.345)" fill="#003753"/>
  <path id="Tracé_134181" data-name="Tracé 134181" d="M65.985,21.918V0H31V21.918ZM44.994,5.217,54.258,11l-9.263,5.783Z" transform="translate(-28.493)" fill="#003753"/>
</svg>
