<svg xmlns="http://www.w3.org/2000/svg" width="21" height="19" viewBox="0 0 21 19">
  <path id="coeur" d="M15,27a.378.378,0,0,1-.222-.072l-.438-.319C10.62,23.912,5,19.834,5,15.01,5,11.3,7.23,9,10.819,9A4.84,4.84,0,0,1,15,11.086,4.84,4.84,0,0,1,19.18,9C22.77,9,25,11.3,25,15.01c0,4.823-5.62,8.9-9.34,11.6l-.438.319A.378.378,0,0,1,15,27ZM10.819,9.721c-3.18,0-5.079,1.977-5.079,5.289,0,4.463,5.441,8.411,9.042,11.024l.217.158.217-.158c3.6-2.613,9.042-6.561,9.042-11.024,0-3.312-1.9-5.289-5.079-5.289A4.359,4.359,0,0,0,15.3,11.9a.391.391,0,0,1-.6,0,4.359,4.359,0,0,0-3.881-2.178Z" transform="translate(-4.5 -8.501)" fill="#003753" stroke="#003753" stroke-width="1"/>
</svg>
