<svg xmlns="http://www.w3.org/2000/svg" width="20" height="24.002" viewBox="0 0 20 24.002">
  <g id="bellboy_1_" data-name="bellboy (1)" transform="translate(-37.571)">
    <g id="Groupe_580" data-name="Groupe 580" transform="translate(48.199 12.94)">
      <g id="Groupe_579" data-name="Groupe 579">
        <path id="Tracé_133456" data-name="Tracé 133456" d="M279.116,276.022h-.156l-4.452,4.452,3.422,6.611h5.241a.709.709,0,0,0,.709-.709v-5.589A4.77,4.77,0,0,0,279.116,276.022Zm.306,6.24h-1.741a.709.709,0,1,1,0-1.417h1.741a.709.709,0,1,1,0,1.417Z" transform="translate(-274.509 -276.022)" fill="#fff"/>
      </g>
    </g>
    <g id="Groupe_582" data-name="Groupe 582" transform="translate(37.571 12.94)">
      <g id="Groupe_581" data-name="Groupe 581">
        <path id="Tracé_133457" data-name="Tracé 133457" d="M42.491,276.022h-.156a4.77,4.77,0,0,0-4.765,4.765v5.589a.709.709,0,0,0,.709.709h5.241l3.422-6.611Z" transform="translate(-37.571 -276.022)" fill="#fff"/>
      </g>
    </g>
    <g id="Groupe_584" data-name="Groupe 584" transform="translate(44.877 18.799)">
      <g id="Groupe_583" data-name="Groupe 583">
        <path id="Tracé_133458" data-name="Tracé 133458" d="M201.23,401l-2.694,5.2h5.388Z" transform="translate(-198.536 -401)" fill="#fff"/>
      </g>
    </g>
    <g id="Groupe_586" data-name="Groupe 586" transform="translate(44.256 12.94)">
      <g id="Groupe_585" data-name="Groupe 585">
        <path id="Tracé_133459" data-name="Tracé 133459" d="M185.287,276.022l3.315,3.315,3.315-3.315Z" transform="translate(-185.287 -276.022)" fill="#fff"/>
      </g>
    </g>
    <g id="Groupe_588" data-name="Groupe 588" transform="translate(41.951)">
      <g id="Groupe_587" data-name="Groupe 587">
        <path id="Tracé_133460" data-name="Tracé 133460" d="M147.367.709A.709.709,0,0,0,146.658,0h-9.821a.709.709,0,0,0-.709.709V3.316h11.239V.709Z" transform="translate(-136.128)" fill="#fff"/>
      </g>
    </g>
    <g id="Groupe_590" data-name="Groupe 590" transform="translate(41.951 4.734)">
      <g id="Groupe_589" data-name="Groupe 589">
        <path id="Tracé_133461" data-name="Tracé 133461" d="M136.128,100.974v1.369a5.619,5.619,0,0,0,11.239,0v-1.369Z" transform="translate(-136.128 -100.974)" fill="#fff"/>
      </g>
    </g>
  </g>
</svg>
