<svg xmlns="http://www.w3.org/2000/svg" width="16" height="13" viewBox="0 0 16 13">
  <g id="courrier" transform="translate(0 -42.666)">
    <g id="Groupe_38244" data-name="Groupe 38244" transform="translate(0 42.666)">
      <g id="Groupe_38243" data-name="Groupe 38243" transform="translate(0 0)">
        <path id="Tracé_134238" data-name="Tracé 134238" d="M8.119,50.6h.016a.665.665,0,0,0,.315-.1.687.687,0,0,0,.258-.295l2.7-7.092a.333.333,0,0,0-.29-.45,1.35,1.35,0,0,0-.761.176L.58,48.5a1.316,1.316,0,0,0-.553.629.332.332,0,0,0,.017.3.335.335,0,0,0,.248.165l7.784,1Z" transform="translate(0 -42.666)" fill="#00aac7"/>
        <path id="Tracé_134239" data-name="Tracé 134239" d="M26.171,79.686l-3.378-5.711a.342.342,0,0,0-.317-.162.334.334,0,0,0-.287.209l-2.522,6.456-.031.061a1.309,1.309,0,0,1-.49.51,1.369,1.369,0,0,1-.7.188l-.067,0-7.321-.92a.34.34,0,0,0-.322.141.316.316,0,0,0-.012.342l2.215,3.745h-.925a.33.33,0,0,0-.335.324v.649a.33.33,0,0,0,.335.324H24.673a.33.33,0,0,0,.335-.324v-.649a.33.33,0,0,0-.335-.324H20.207l5.477-3.086A1.28,1.28,0,0,0,26.171,79.686Z" transform="translate(-10.348 -72.839)" fill="#00aac7"/>
      </g>
    </g>
  </g>
</svg>
