<svg id="etiquette-de-vente" xmlns="http://www.w3.org/2000/svg" width="24" height="24" viewBox="0 0 24 24">
  <path id="Tracé_3776" data-name="Tracé 3776" d="M210.623,259.038l.965-.965-2.186-1.221Zm0,0" transform="translate(-199.626 -244.86)" fill="#003753"/>
  <path id="Tracé_3777" data-name="Tracé 3777" d="M21.414,0H15.86a5.94,5.94,0,0,0-3.711,1.537L.755,12.931a2.591,2.591,0,0,0,0,3.657l6.657,6.657a2.592,2.592,0,0,0,3.657,0L22.463,11.851A5.94,5.94,0,0,0,24,8.14V2.586A2.589,2.589,0,0,0,21.414,0ZM20.066,4.969a.7.7,0,1,1,.206-.5A.709.709,0,0,1,20.066,4.969Zm0,0" fill="#003753"/>
</svg>
