<svg xmlns="http://www.w3.org/2000/svg" width="40" height="40" viewBox="0 0 40 40">
  <g id="famille" transform="translate(0 -1.002)">
    <path id="Tracé_134175" data-name="Tracé 134175" d="M13.148,270.808l.608-.683a7.283,7.283,0,0,1,.029-4.427,8.481,8.481,0,0,1-10.563-1.969A8.478,8.478,0,0,0,0,270.382v12.132a1.214,1.214,0,0,0,1.213,1.213h10A3.61,3.61,0,0,1,11,282.514v-6.066A8.474,8.474,0,0,1,13.148,270.808Z" transform="translate(0 -242.725)" fill="#003753"/>
    <circle id="Ellipse_155" data-name="Ellipse 155" cx="6.066" cy="6.066" r="6.066" transform="translate(3.64 10.291)" fill="#003753"/>
    <path id="Tracé_134176" data-name="Tracé 134176" d="M352.123,263.728A8.479,8.479,0,0,1,341.56,265.7a7.287,7.287,0,0,1,.029,4.428l.608.683a8.474,8.474,0,0,1,2.148,5.64v6.066a3.61,3.61,0,0,1-.209,1.213h10a1.214,1.214,0,0,0,1.213-1.213V270.382A8.478,8.478,0,0,0,352.123,263.728Z" transform="translate(-315.345 -242.725)" fill="#003753"/>
    <circle id="Ellipse_156" data-name="Ellipse 156" cx="6.066" cy="6.066" r="6.066" transform="translate(24.228 10.291)" fill="#003753"/>
    <path id="Tracé_134177" data-name="Tracé 134177" d="M173.279,374.022a7.269,7.269,0,0,1-5.745-2.814A6.038,6.038,0,0,0,166,375.235V381.3a1.214,1.214,0,0,0,1.213,1.213h12.132a1.214,1.214,0,0,0,1.213-1.213v-6.066a6.038,6.038,0,0,0-1.534-4.027A7.269,7.269,0,0,1,173.279,374.022Z" transform="translate(-153.279 -341.512)" fill="#003753"/>
    <circle id="Ellipse_157" data-name="Ellipse 157" cx="4.853" cy="4.853" r="4.853" transform="translate(15.147 20.81)" fill="#003753"/>
    <path id="Tracé_134178" data-name="Tracé 134178" d="M179.018,10.788a20.312,20.312,0,0,0,2.816,2.166,1.213,1.213,0,0,0,1.272,0,20.311,20.311,0,0,0,2.816-2.166c2-1.851,3.018-3.651,3.018-5.348,0-3.856-3.835-5.666-6.47-3.524C179.829-.231,176,1.594,176,5.439c0,1.7,1.016,3.5,3.018,5.348Z" transform="translate(-162.47 0)" fill="#003753"/>
  </g>
</svg>
