<svg xmlns="http://www.w3.org/2000/svg" width="16" height="19" viewBox="0 0 16 19">
  <g id="lien" transform="translate(-42.4 0)">
    <g id="Groupe_38241" data-name="Groupe 38241" transform="translate(42.4 6.115)">
      <path id="Tracé_134236" data-name="Tracé 134236" d="M54.134,172.347a3.924,3.924,0,0,0-2.855-1.155l-1.957,1.957a.567.567,0,0,0,.8.8,1.7,1.7,0,1,1,2.406,2.406l-4.959,4.955a1.7,1.7,0,0,1-2.406-2.406l1.374-1.37a4.748,4.748,0,0,1-.425-.377,5.015,5.015,0,0,1-.995-1.412L43.561,177.3a3.97,3.97,0,1,0,5.614,5.614l4.959-4.955A4.025,4.025,0,0,0,54.134,172.347Z" transform="translate(-42.4 -171.191)" fill="#00aac7"/>
    </g>
    <g id="Groupe_38242" data-name="Groupe 38242" transform="translate(45.605 0)">
      <path id="Tracé_134237" data-name="Tracé 134237" d="M140.349,6.826a4.965,4.965,0,0,1,.995,1.412l1.46-1.462a3.97,3.97,0,0,0-5.614-5.614l-4.861,4.863a3.963,3.963,0,0,0,2.855,6.769l1.957-1.957a.567.567,0,0,0-.8-.8,1.7,1.7,0,1,1-2.406-2.406l4.861-4.863A1.7,1.7,0,0,1,141.2,5.171l-1.276,1.278a4.622,4.622,0,0,1,.425.377Z" transform="translate(-131.169 0)" fill="#00aac7"/>
    </g>
  </g>
</svg>
