<svg id="localisation-white" xmlns="http://www.w3.org/2000/svg" width="17" height="22" viewBox="0 0 17 22">
  <g id="Groupe_567" data-name="Groupe 567">
    <path id="Tracé_13888" data-name="Tracé 13888" d="M68.5,0A8.471,8.471,0,0,0,60,8.422a8.359,8.359,0,0,0,1.146,4.226,8.453,8.453,0,0,0,.581.863L68.131,22h.739l6.4-8.489a8.471,8.471,0,0,0,.581-.863A8.359,8.359,0,0,0,77,8.422,8.471,8.471,0,0,0,68.5,0Zm0,11.215a2.793,2.793,0,1,1,2.819-2.793A2.809,2.809,0,0,1,68.5,11.215Z" transform="translate(-60)" fill="#fff"/>
  </g>
</svg>
