<svg id="loisirs" xmlns="http://www.w3.org/2000/svg" width="40" height="40" viewBox="0 0 40 40">
  <path id="Tracé_134153" data-name="Tracé 134153" d="M269.6,111.785h0a1.2,1.2,0,1,0-1.2-1.2A1.2,1.2,0,0,0,269.6,111.785Z" transform="translate(-247.472 -100.854)" fill="#003753"/>
  <path id="Tracé_134154" data-name="Tracé 134154" d="M141.156,140.07a1.2,1.2,0,1,0,.85.352A1.2,1.2,0,0,0,141.156,140.07Z" transform="translate(-129.049 -129.149)" fill="#003753"/>
  <path id="Tracé_134155" data-name="Tracé 134155" d="M110.467,268.516a1.2,1.2,0,1,0,0,2.4v0a1.2,1.2,0,1,0,0-2.4Z" transform="translate(-100.754 -247.599)" fill="#003753"/>
  <path id="Tracé_134156" data-name="Tracé 134156" d="M19.4,20.464a.921.921,0,0,1,.175-1.059.88.88,0,0,1,.641-.269.954.954,0,0,1,.419.094,9.479,9.479,0,0,0,4.274,1.012A9.565,9.565,0,0,0,29.2,2.121,20.176,20.176,0,0,0,20.223,0,20.06,20.06,0,0,0,2.279,29.018a9.549,9.549,0,0,0,1.792,2.488,9.649,9.649,0,0,0,6.775,2.8A9.57,9.57,0,0,0,19.4,20.464ZM23,6.4a3.627,3.627,0,1,1,0,7.255h0A3.627,3.627,0,1,1,23,6.4ZM10.167,26.48a3.627,3.627,0,1,1,3.63-3.627,3.633,3.633,0,0,1-3.63,3.627Zm2.475-10.353a3.627,3.627,0,1,1,3.63-3.627,3.633,3.633,0,0,1-3.63,3.627Z" transform="translate(-0.156 0)" fill="#003753"/>
  <path id="Tracé_134157" data-name="Tracé 134157" d="M239.342,357.938a5.484,5.484,0,0,0-3.9,1.617,6.551,6.551,0,0,0-1.753,5.4,4.541,4.541,0,0,1-.627,3.1,1.2,1.2,0,0,0,.476,1.816,5.613,5.613,0,0,0,2.276.421,11.474,11.474,0,0,0,7.433-2.935,5.52,5.52,0,0,0-3.9-9.422Z" transform="translate(-214.831 -330.295)" fill="#003753"/>
  <path id="Tracé_134158" data-name="Tracé 134158" d="M356.837,229.069a3.6,3.6,0,0,0-5.1,0l-7.268,7.32a7.947,7.947,0,0,1,5.11,5.084l7.258-7.31a3.6,3.6,0,0,0,0-5.1Z" transform="translate(-317.893 -210.43)" fill="#003753"/>
</svg>
