<svg id="maison-ecologique" xmlns="http://www.w3.org/2000/svg" width="40" height="40" viewBox="0 0 40 40">
  <path id="Tracé_134149" data-name="Tracé 134149" d="M295.271,6.583V9.118l4.659,3.345V6.583A4.658,4.658,0,0,0,304.2,1.941V1.165A1.165,1.165,0,0,0,303.036,0h-.776A4.664,4.664,0,0,0,297.6,4.659,4.664,4.664,0,0,0,292.941,0h-.776A1.165,1.165,0,0,0,291,1.165v.776A4.658,4.658,0,0,0,295.271,6.583Z" transform="translate(-268.16)" fill="#003753"/>
  <path id="Tracé_134150" data-name="Tracé 134150" d="M25.2,115.163l14.168-10.1,14.168,10.1a2.655,2.655,0,0,0,4.2-2.141,1.162,1.162,0,0,0-.489-.946L41.421,100.786a3.534,3.534,0,0,0-4.1,0L21.489,112.075a1.162,1.162,0,0,0-.489.946,2.655,2.655,0,0,0,4.2,2.141Z" transform="translate(-19.369 -92.277)" fill="#003753"/>
  <circle id="Ellipse_152" data-name="Ellipse 152" cx="1" cy="1" r="1" transform="translate(19.123 21.897)" fill="#003753"/>
  <path id="Tracé_134151" data-name="Tracé 134151" d="M221,402h5.435v8.541H221Z" transform="translate(-203.718 -370.541)" fill="#003753"/>
  <path id="Tracé_134152" data-name="Tracé 134152" d="M38.828,222.39H32.891V209.732L20,200.534l-12.891,9.2V222.39H1.172a1.165,1.165,0,1,0,0,2.329h13.75v-9.706a1.168,1.168,0,0,1,1.172-1.165h7.812a1.168,1.168,0,0,1,1.172,1.165v9.706h13.75a1.165,1.165,0,1,0,0-2.329ZM20,211.519a3.494,3.494,0,1,1,3.516-3.494A3.509,3.509,0,0,1,20,211.519Z" transform="translate(0 -184.719)" fill="#003753"/>
</svg>
