<svg xmlns="http://www.w3.org/2000/svg" width="40" height="40" viewBox="0 0 40 40">
  <path id="mode" d="M41.648,18.283a10.818,10.818,0,0,1-1.228-5.069V5.64a1.982,1.982,0,0,0-1.992-1.97H36.807a1.982,1.982,0,0,0-1.992,1.97v6.276a10.739,10.739,0,0,1-21.476,0V5.64a1.982,1.982,0,0,0-1.992-1.97H9.9A1.98,1.98,0,0,0,7.913,5.64v7.526a10.743,10.743,0,0,1-1.835,6.149c-1.928,2.789-3.513,7.674-.1,15.079a3.808,3.808,0,0,1,.364,1.588V40.07a3.629,3.629,0,0,0,3.648,3.6h27.83a3.622,3.622,0,0,0,3.641-3.6V35.89a3.808,3.808,0,0,1,.55-1.963c3.7-6.029,1.357-12.39-.364-15.644Z" transform="translate(-3.978 -3.67)" fill="#003753"/>
</svg>
