<svg xmlns="http://www.w3.org/2000/svg" width="30" height="40" viewBox="0 0 30 40">
  <g id="nourriture-et-boisson" transform="translate(9.941 2.02)">
    <path id="Tracé_134163" data-name="Tracé 134163" d="M-2.925,628.03a11.806,11.806,0,0,1,.256-7.758,10.041,10.041,0,0,1,.883-1.713H-9.941v13.953a1.182,1.182,0,0,0,1.182,1.182H.691A11.994,11.994,0,0,1-2.925,628.03Zm0,0" transform="translate(0 -595.716)" fill="#003753"/>
    <path id="Tracé_134164" data-name="Tracé 134164" d="M5.644,9.2a4.962,4.962,0,0,0-3.1-4.593V1.926A1.182,1.182,0,0,0,1.364.744H-.966V-.837A1.183,1.183,0,0,0-2.148-2.02,1.182,1.182,0,0,0-3.331-.837V.744h-2.33A1.182,1.182,0,0,0-6.843,1.926V4.61A4.963,4.963,0,0,0-9.941,9.2v2.443H5.644Zm0,0" fill="#003753"/>
    <path id="Tracé_134165" data-name="Tracé 134165" d="M-9.941,398.117v6.467H.446a8.3,8.3,0,0,1,4.849-1.566c.117,0,.233,0,.349.008v-4.909ZM.091,402.533H-4.388a1.182,1.182,0,0,1-1.183-1.182,1.183,1.183,0,0,1,1.183-1.182H.091a1.182,1.182,0,0,1,0,2.365Zm0,0" transform="translate(0 -384.106)" fill="#003753"/>
    <path id="Tracé_134166" data-name="Tracé 134166" d="M220.354,436.164a6.271,6.271,0,0,0-4.724-.521,6.41,6.41,0,0,0-4.077,3.913,9.815,9.815,0,0,0,3.381,11.27,6.408,6.408,0,0,0,5.557,1.023,5.85,5.85,0,0,0,.963-.385,5.91,5.91,0,0,0,2.67.636,6.758,6.758,0,0,0,3.851-1.274,9.816,9.816,0,0,0,3.38-11.27,6.407,6.407,0,0,0-4.077-3.913,6.229,6.229,0,0,0-4.519.419,8.567,8.567,0,0,1,1.016-2.837,8.705,8.705,0,0,1,1.4-1.824,1.182,1.182,0,1,0-1.672-1.672,10.927,10.927,0,0,0-3.146,6.435Zm0,0" transform="translate(-211.915 -414.119)" fill="#003753"/>
  </g>
</svg>
