<svg xmlns="http://www.w3.org/2000/svg" width="27" height="24" viewBox="0 0 27 24">
  <g id="parametres" transform="translate(-4 -5)">
    <g id="parametres-2" data-name="parametres" transform="translate(4 5)">
      <path id="Tracé_13867" data-name="Tracé 13867" d="M4.038,10.066H8.192A2.342,2.342,0,0,0,10.269,12.6h2.077a2.342,2.342,0,0,0,2.077-2.533H28.962A1.169,1.169,0,0,0,30,8.8a1.169,1.169,0,0,0-1.038-1.266H14.423A2.342,2.342,0,0,0,12.346,5H10.269A2.342,2.342,0,0,0,8.192,7.533H4.038A1.169,1.169,0,0,0,3,8.8,1.169,1.169,0,0,0,4.038,10.066Z" transform="translate(-3 -5)" fill="#003753"/>
      <path id="Tracé_13868" data-name="Tracé 13868" d="M28.962,15.533H22.731A2.342,2.342,0,0,0,20.654,13H18.577A2.342,2.342,0,0,0,16.5,15.533H4.038A1.169,1.169,0,0,0,3,16.8a1.169,1.169,0,0,0,1.038,1.266H16.5A2.342,2.342,0,0,0,18.577,20.6h2.077a2.342,2.342,0,0,0,2.077-2.533h6.231A1.169,1.169,0,0,0,30,16.8,1.169,1.169,0,0,0,28.962,15.533Z" transform="translate(-3 -4.799)" fill="#003753"/>
      <path id="Tracé_13869" data-name="Tracé 13869" d="M28.962,23.533H14.423A2.342,2.342,0,0,0,12.346,21H10.269a2.342,2.342,0,0,0-2.077,2.533H4.038a1.291,1.291,0,0,0,0,2.533H8.192A2.342,2.342,0,0,0,10.269,28.6h2.077a2.342,2.342,0,0,0,2.077-2.533H28.962a1.291,1.291,0,0,0,0-2.533Z" transform="translate(-3 -4.599)" fill="#003753"/>
    </g>
  </g>
</svg>
