<svg xmlns="http://www.w3.org/2000/svg" width="47" height="40" viewBox="0 0 47 40">
  <g id="parc-dattractions" transform="translate(0 -38.956)">
    <g id="Groupe_31712" data-name="Groupe 31712" transform="translate(0 38.956)">
      <path id="Tracé_134174" data-name="Tracé 134174" d="M47,46.648V40.494a1.536,1.536,0,0,0-1.533-1.538H38.315c-5.181,0-8.661,2-12.258,5.229a4.63,4.63,0,0,0,0,6.884,4.572,4.572,0,0,0,.862.6C15.214,62.164,14.5,63.571,10.728,63.571A7.688,7.688,0,0,1,6.13,49.74v8.409a1.533,1.533,0,1,0,3.065,0V48.342a7.5,7.5,0,0,1,3.065.006v9.779a1.533,1.533,0,1,0,3.065,0V49.734c.438.331,3.151,2.786,3.6,3.192a1.535,1.535,0,0,0,2.041-2.294c-3.06-2.746-5.434-5.522-10.242-5.522A10.785,10.785,0,0,0,0,55.879V77.418a1.536,1.536,0,0,0,1.533,1.538H45.467a1.536,1.536,0,0,0,.511-2.983V48.093A1.534,1.534,0,0,0,47,46.648ZM6.13,75.879H3.065V63.4A10.768,10.768,0,0,0,6.13,65.595V75.879Zm6.13,0H9.2V66.525a10.682,10.682,0,0,0,1.533.123,10.647,10.647,0,0,0,1.533-.122v9.352Zm6.13,0H15.326V65.6a11.515,11.515,0,0,0,3.065-2.161V75.879Zm6.13,0H21.456V60.691l3.065-2.749Zm6.13,0H27.587V55.193l3.065-2.749Zm6.13,0H33.717V49.734a7.632,7.632,0,0,1,3.065-1.386Zm6.13,0H39.848V48.187h3.065Z" transform="translate(0 -38.956)" fill="#0c3f5d"/>
    </g>
  </g>
</svg>
