<svg id="shopping-basket" xmlns="http://www.w3.org/2000/svg" width="54" height="50" viewBox="0 0 54 50">
  <path id="Tracé_133642" data-name="Tracé 133642" d="M52.418,47.66H46.85L34.669,31.625a1.529,1.529,0,0,0-2.224-.26,1.726,1.726,0,0,0-.247,2.342L42.8,47.66H11.2L21.8,33.707a1.727,1.727,0,0,0-.247-2.342,1.529,1.529,0,0,0-2.224.26L7.15,47.66H1.582A1.626,1.626,0,0,0,0,49.326v3.332a1.626,1.626,0,0,0,1.582,1.666H52.418A1.626,1.626,0,0,0,54,52.658V49.326A1.626,1.626,0,0,0,52.418,47.66Z" transform="translate(0 -31)" fill="#fff"/>
  <path id="Tracé_133643" data-name="Tracé 133643" d="M39.638,293.116a1.586,1.586,0,0,0,1.509,1.208h31.6a1.586,1.586,0,0,0,1.509-1.208L80.2,271H33.686Zm24.495-7.4,1.569-10a1.582,1.582,0,0,1,1.806-1.369,1.658,1.658,0,0,1,1.29,1.917l-1.569,10a1.6,1.6,0,0,1-1.546,1.392,1.474,1.474,0,0,1-.26-.023A1.658,1.658,0,0,1,64.133,285.72ZM55.375,276a1.572,1.572,0,1,1,3.139,0v10a1.572,1.572,0,1,1-3.139,0Zm-8.889-1.643a1.582,1.582,0,0,1,1.806,1.369l1.569,10a1.658,1.658,0,0,1-1.29,1.917,1.491,1.491,0,0,1-.26.023,1.6,1.6,0,0,1-1.546-1.392l-1.569-10A1.658,1.658,0,0,1,46.486,274.355Z" transform="translate(-29.945 -244.324)" fill="#fff"/>
</svg>
