<svg id="shop" xmlns="http://www.w3.org/2000/svg" width="50" height="50" viewBox="0 0 50 50">
  <g id="Glyph" transform="translate(0 0)">
    <path id="Tracé_2163" data-name="Tracé 2163" d="M49.991,32H0v2.161a4.246,4.246,0,0,0,4.167,4.321h6.25a4.246,4.246,0,0,0,4.167-4.321,4.246,4.246,0,0,0,4.167,4.321h12.5a4.246,4.246,0,0,0,4.167-4.321,4.246,4.246,0,0,0,4.167,4.321h6.25A4.246,4.246,0,0,0,50,34.161V32Z" transform="translate(0 -15.422)" fill="#003753"/>
    <path id="Tracé_2164" data-name="Tracé 2164" d="M81.527,15.125,77.653,1.567A2.161,2.161,0,0,0,75.576,0h-9.9L68.7,15.125Z" transform="translate(-32.058 0)" fill="#003753"/>
    <path id="Tracé_2165" data-name="Tracé 2165" d="M16.831,0h-9.9A2.161,2.161,0,0,0,4.857,1.567L.983,15.125H13.806Z" transform="translate(-0.452 0)" fill="#003753"/>
    <path id="Tracé_2166" data-name="Tracé 2166" d="M46.19,0H35.9L32.879,15.125H49.215Z" transform="translate(-16.047 0)" fill="#003753"/>
    <path id="Tracé_2167" data-name="Tracé 2167" d="M41.373,46.592a6.069,6.069,0,0,1-4.153-1.655,6.069,6.069,0,0,1-4.153,1.655H20.61a6.069,6.069,0,0,1-4.153-1.655,6.069,6.069,0,0,1-4.153,1.655H6.076A5.972,5.972,0,0,1,4,46.213V70.36A2.12,2.12,0,0,0,6.076,72.52h4.153V53.074a2.12,2.12,0,0,1,2.076-2.161H22.687a2.12,2.12,0,0,1,2.076,2.161V72.52H47.6a2.12,2.12,0,0,0,2.076-2.161V46.213a5.972,5.972,0,0,1-2.076.378ZM43.45,59.556a2.12,2.12,0,0,1-2.076,2.161H30.992a2.12,2.12,0,0,1-2.076-2.161V53.074a2.12,2.12,0,0,1,2.076-2.161H41.373a2.12,2.12,0,0,1,2.076,2.161Z" transform="translate(-1.839 -22.52)" fill="#003753"/>
  </g>
</svg>
