<svg xmlns="http://www.w3.org/2000/svg" width="24" height="24" viewBox="0 0 24 24">
  <g id="user_9_" data-name="user (9)" transform="translate(-3 -3)">
    <path id="Tracé_2161" data-name="Tracé 2161" d="M11.611,15.031A6.024,6.024,0,0,0,15.3,16.294a6.622,6.622,0,0,0,6.3-6.647A6.489,6.489,0,0,0,15.3,3,6.489,6.489,0,0,0,9,9.647,6.745,6.745,0,0,0,11.611,15.031Z" transform="translate(-0.303 0)" fill="#fff"/>
    <path id="Tracé_2162" data-name="Tracé 2162" d="M20.686,16.55a8.112,8.112,0,0,1-11.372,0A12.416,12.416,0,0,0,3,27.422a.939.939,0,0,0,.923.95H26.077a.939.939,0,0,0,.923-.95A12.416,12.416,0,0,0,20.686,16.55Z" transform="translate(0 -1.372)" fill="#fff"/>
  </g>
</svg>
