<svg id="vacances" xmlns="http://www.w3.org/2000/svg" width="43" height="40" viewBox="0 0 43 40">
  <path id="Tracé_134159" data-name="Tracé 134159" d="M2.588,27.959c.764.358,39.542.358,40.306,0a1.527,1.527,0,0,0,.734-2.034c-2.8-5.918-11.054-10.374-20.887-10.374S4.659,20.007,1.855,25.925a1.527,1.527,0,0,0,.734,2.034Z" transform="translate(-1.709 11.772)" fill="#003753" fill-rule="evenodd"/>
  <path id="Tracé_134160" data-name="Tracé 134160" d="M26.863,2.79c1.735.466,3.143,2.089,3.848,4.664.847,3.094.745,7.685-.558,12.553l-.409,1.472,6.4,1.716a1.53,1.53,0,0,0,1.871-1.081A15.788,15.788,0,0,0,26.863,2.79Zm-9,15.5,8.929,2.392.411-1.476c1.136-4.249,1.3-8.251.56-10.951-.354-1.295-.822-2.286-1.694-2.52s-1.773.393-2.726,1.335c-1.991,1.971-3.852,5.521-4.992,9.77-.008.033-.018.065-.029.1ZM14.909,17.5c.3-.863.507-1.488.5-1.484,1.3-4.851,3.51-8.864,5.784-11.113,1.9-1.879,3.929-2.579,5.666-2.115h0A15.785,15.785,0,0,0,7.54,13.946a1.527,1.527,0,0,0,1.079,1.871Z" transform="translate(4.44 -2.249)" fill="#003753" fill-rule="evenodd"/>
  <path id="Tracé_134161" data-name="Tracé 134161" d="M4.937,21.035A30.453,30.453,0,0,1,19.51,17.486h.279A7.635,7.635,0,0,0,4.937,21.035Z" transform="translate(1.442 7.711)" fill="#003753" fill-rule="evenodd"/>
  <path id="Tracé_134162" data-name="Tracé 134162" d="M12.995,20.1c1.046.063,2.072.173,3.072.33l2.482-9.259a1.527,1.527,0,0,0-2.95-.79Z" transform="translate(10.082 5.125)" fill="#003753" fill-rule="evenodd"/>
</svg>
