<svg xmlns="http://www.w3.org/2000/svg" width="36" height="36" viewBox="0 0 36 36">
  <g id="condition" transform="translate(5.997 8)">
    <rect id="Rectangle_275" data-name="Rectangle 275" width="36" height="36" rx="4" transform="translate(-5.997 -8)" fill="#ff8a00" opacity="0.08"/>
    <path id="Tracé_3776" data-name="Tracé 3776" d="M210.452,258.732l.83-.83-1.88-1.05Zm0,0" transform="translate(-200.385 -245.79)" fill="#ff8a00"/>
    <path id="Tracé_3777" data-name="Tracé 3777" d="M19.629,0H14.539a5.445,5.445,0,0,0-3.4,1.409L.692,11.854a2.375,2.375,0,0,0,0,3.352l6.1,6.1a2.376,2.376,0,0,0,3.352,0L20.591,10.863A5.445,5.445,0,0,0,22,7.461V2.37A2.373,2.373,0,0,0,19.629,0ZM18.394,4.555a.645.645,0,1,1,.189-.456A.65.65,0,0,1,18.394,4.555Zm0,0" transform="translate(0 0)" fill="#ff8a00"/>
  </g>
</svg>
