<svg xmlns="http://www.w3.org/2000/svg" width="22" height="22" viewBox="0 0 22 22">
  <g id="shop" transform="translate(0 -310)">
    <g id="Glyph" transform="translate(0 310)">
      <path id="Tracé_2163" data-name="Tracé 2163" d="M22,32H0v.948a1.866,1.866,0,0,0,1.833,1.9h2.75a1.866,1.866,0,0,0,1.833-1.9,1.866,1.866,0,0,0,1.833,1.9h5.5a1.866,1.866,0,0,0,1.833-1.9,1.866,1.866,0,0,0,1.833,1.9h2.75A1.866,1.866,0,0,0,22,32.948V32Z" transform="translate(0 -24.703)" fill="#003753"/>
      <path id="Tracé_2164" data-name="Tracé 2164" d="M72.634,6.638l-1.7-5.95A.948.948,0,0,0,70.022,0H65.679l1.328,6.638Z" transform="translate(-50.867 0)" fill="#003753"/>
      <path id="Tracé_2165" data-name="Tracé 2165" d="M7.938,0H3.595a.948.948,0,0,0-.912.688l-1.7,5.95H6.611Z" transform="translate(-0.75 0)" fill="#003753"/>
      <path id="Tracé_2166" data-name="Tracé 2166" d="M38.721,0H34.207L32.879,6.638h7.169Z" transform="translate(-25.464 0)" fill="#003753"/>
      <path id="Tracé_2167" data-name="Tracé 2167" d="M20.448,45.663a2.675,2.675,0,0,1-1.828-.726,2.675,2.675,0,0,1-1.828.726H11.31a2.675,2.675,0,0,1-1.828-.726,2.675,2.675,0,0,1-1.828.726H4.914A2.635,2.635,0,0,1,4,45.5v10.6a.932.932,0,0,0,.914.948H6.741V48.508a.932.932,0,0,1,.914-.948h4.569a.932.932,0,0,1,.914.948v8.534H23.19a.932.932,0,0,0,.914-.948V45.5a2.635,2.635,0,0,1-.914.166Zm.914,5.69a.932.932,0,0,1-.914.948H15.879a.932.932,0,0,1-.914-.948V48.508a.932.932,0,0,1,.914-.948h4.569a.932.932,0,0,1,.914.948Z" transform="translate(-3.052 -35.042)" fill="#003753"/>
    </g>
  </g>
</svg>
