<svg xmlns="http://www.w3.org/2000/svg" width="36" height="36" viewBox="0 0 36 36">
  <g id="description" transform="translate(5.997 8)">
    <rect id="Rectangle_275" data-name="Rectangle 275" width="36" height="36" rx="4" transform="translate(-5.997 -8)" fill="#e4aa02" opacity="0.08"/>
    <path id="Tracé_3776" data-name="Tracé 3776" d="M210.452,258.732l.83-.83-1.88-1.05Zm0,0" transform="translate(-198.399 -245.79)" fill="#e4aa02"/>
    <g id="modifier" transform="translate(-23.997 -924)">
      <path id="Tracé_13891" data-name="Tracé 13891" d="M13.729,82.473,1.5,94.706a.488.488,0,0,0-.127.223L.014,100.371a.481.481,0,0,0,.467.6.479.479,0,0,0,.117-.014L6.039,99.6a.481.481,0,0,0,.223-.127L18.5,87.24Zm0,0" transform="translate(25 844.031)" fill="#e4ac03"/>
      <path id="Tracé_13892" data-name="Tracé 13892" d="M340.763,2.29,339.4.929a2.466,2.466,0,0,0-3.405,0L334.328,2.6,339.1,7.364,340.763,5.7a2.408,2.408,0,0,0,0-3.405Zm0,0" transform="translate(-294.468 922.753)" fill="#e4ac03"/>
    </g>
  </g>
</svg>
