<svg xmlns="http://www.w3.org/2000/svg" width="36" height="36" viewBox="0 0 36 36">
  <g id="promo" transform="translate(7 7)">
    <rect id="Rectangle_275" data-name="Rectangle 275" width="36" height="36" rx="4" transform="translate(-7 -7)" fill="#23eca3" opacity="0.08"/>
    <g id="Line" transform="translate(-4.65 -3.236)">
      <path id="Tracé_31950" data-name="Tracé 31950" d="M19.854,36s-3.058,2.712-3.1,2.748L18.359,41a1.787,1.787,0,0,0,2.762.228l.425-.425a2.061,2.061,0,0,0,.111-2.637Z" transform="translate(-5.174 -14.546)" fill="#23eca3"/>
      <path id="Tracé_31951" data-name="Tracé 31951" d="M6.922,32.418a2.861,2.861,0,0,0,4.027.268c.011-.012,3.071-2.724,3.071-2.724L8.647,23.916,5.615,26.611a2.883,2.883,0,0,0-.24,4.067Z" transform="translate(0 -9.422)" fill="#23eca3"/>
      <path id="Tracé_31952" data-name="Tracé 31952" d="M26.462,15.746l2.58-.4a1.47,1.47,0,0,0,.816-2.507L25.846,8.829s1.429-1.61.242-2.638a1.962,1.962,0,0,0-2.638.242L19.436,2.419a1.474,1.474,0,0,0-2.5.845l-.4,3.022a13.928,13.928,0,0,1-3.523,7.521L18.431,19.9a15.141,15.141,0,0,1,8.032-4.153Z" transform="translate(-3.652 0)" fill="#23eca3"/>
      <path id="Tracé_31953" data-name="Tracé 31953" d="M37.986,5.287l2.3-2.3a.576.576,0,1,0-.815-.815l-2.3,2.3A.576.576,0,0,0,37.986,5.287Z" transform="translate(-13.823 -0.009)" fill="#23eca3"/>
      <path id="Tracé_31954" data-name="Tracé 31954" d="M38.576,11a.576.576,0,0,0,0,1.152H40.3A.576.576,0,0,0,40.3,11Z" transform="translate(-14.244 -3.851)" fill="#23eca3"/>
      <path id="Tracé_31955" data-name="Tracé 31955" d="M31.96,4.283a.576.576,0,0,0,1.152,0V2.555a.576.576,0,0,0-1.152,0Z" transform="translate(-11.656 -0.001)" fill="#23eca3"/>
    </g>
  </g>
</svg>
