<svg xmlns="http://www.w3.org/2000/svg" width="36" height="36" viewBox="0 0 36 36">
  <g id="entreprise" transform="translate(-24 -456)">
    <g id="Groupe_553" data-name="Groupe 553" transform="translate(24 456)" opacity="0.08">
      <rect id="Rectangle_275" data-name="Rectangle 275" width="36" height="36" rx="4" fill="#00a6c2"/>
    </g>
    <g id="bureau" transform="translate(-13.39 460)">
      <path id="Tracé_2160" data-name="Tracé 2160" d="M54.423,8.17h2.536V11.1h1.673V1.233A1.217,1.217,0,0,0,57.432,0H45.59a1.217,1.217,0,0,0-1.2,1.233V26.267a1.217,1.217,0,0,0,1.2,1.233h4.26V19.485h3.3V12.776a1.69,1.69,0,0,1,1.272-1.57V8.17h0Zm0-5.7h2.536v3.7H54.423Zm-5.781,20.8H46.107v-3.7h2.535v3.7Zm0-5.416H46.107v-3.7h2.535v3.7Zm0-5.981H46.107V8.17h2.535v3.7Zm0-5.7H46.107v-3.7h2.535v3.7ZM52.871,17.85H50.336v-3.7h2.535Zm0-5.981H50.336V8.17h2.535Zm0-5.7H50.336v-3.7h2.535Zm12.5,5.919H55.344c-.561,0-1.017.309-1.017.691V26.809c0,.382.455.691,1.017.691h3.609V23.007h2.9V27.5h3.523c.561,0,1.017-.309,1.017-.691V12.776C66.39,12.395,65.935,12.085,65.373,12.085ZM57.928,25.127H55.781V23.053h2.147Zm0-3.036H55.781V20.017h2.147Zm0-3.352H55.781V16.665h2.147Zm0-3.2H55.781V13.468h2.147Zm3.582,6.55H59.363V20.017h2.147Zm0-3.352H59.363V16.665h2.147Zm0-3.2H59.363V13.468h2.147Zm3.462,9.632H62.825V23.1h2.147Zm0-3.082H62.825V20.017h2.147Zm0-3.352H62.825V16.665h2.147Zm0-3.2H62.825V13.468h2.147Z" transform="translate(0)" fill="#00aac7"/>
    </g>
  </g>
</svg>
