<svg xmlns="http://www.w3.org/2000/svg" width="36" height="36" viewBox="0 0 36 36">
  <g id="notif-coucou" transform="translate(-24 -456)">
    <g id="Groupe_553" data-name="Groupe 553" transform="translate(24 456)" opacity="0.08">
      <rect id="Rectangle_275" data-name="Rectangle 275" width="36" height="36" rx="4" fill="#eaae00"/>
    </g>
    <g id="waving-hand" transform="translate(31 463)">
      <path id="Tracé_13897" data-name="Tracé 13897" d="M121,111.356v-9.7a2.381,2.381,0,0,0-4.76,0v2.381L109.794,97.8a2.114,2.114,0,0,0-2.918,0,1.948,1.948,0,0,0,0,2.821L105.4,99.2a2.114,2.114,0,0,0-2.918,0,1.948,1.948,0,0,0,0,2.821l.853.824a2.114,2.114,0,0,0-2.918,0,1.948,1.948,0,0,0,0,2.821l2.1,2.034a2.114,2.114,0,0,0-2.918,0,1.948,1.948,0,0,0,0,2.821l6.5,6.28a8.748,8.748,0,0,0,12.076,0l.837-.809A6.427,6.427,0,0,0,121,111.356h0Z" transform="translate(-99.003 -97.219)" fill="#eaae00"/>
      <g id="Groupe_576" data-name="Groupe 576" transform="translate(3.007 3.007)">
        <path id="Tracé_13900" data-name="Tracé 13900" d="M239.269,158.576a.4.4,0,0,1-.281-.117l-3.866-3.866a.4.4,0,0,1,.563-.563l3.866,3.866a.4.4,0,0,1-.281.679Z" transform="translate(-230.799 -153.915)" fill="#fff"/>
        <path id="Tracé_13901" data-name="Tracé 13901" d="M175.429,201.1a.4.4,0,0,1-.281-.117l-4.511-4.511a.4.4,0,1,1,.563-.563l4.511,4.511a.4.4,0,0,1-.281.679Z" transform="translate(-169.734 -193.572)" fill="#fff"/>
        <path id="Tracé_13902" data-name="Tracé 13902" d="M159.069,291.1a.4.4,0,0,1-.281-.117l-2.976-2.976a.4.4,0,0,1,.563-.563l2.976,2.976a.4.4,0,0,1-.281.679Z" transform="translate(-155.695 -280.255)" fill="#fff"/>
      </g>
      <path id="Tracé_13907" data-name="Tracé 13907" d="M359.54,270.411a.4.4,0,0,1-.365-.24,6.5,6.5,0,0,1,.415-5.971.4.4,0,1,1,.679.415,5.705,5.705,0,0,0-.364,5.24.4.4,0,0,1-.365.556Z" transform="translate(-344.353 -255.163)" fill="#fff"/>
    </g>
  </g>
</svg>
