<svg xmlns="http://www.w3.org/2000/svg" width="19.458" height="20.571" viewBox="0 0 19.458 20.571">
  <g id="arrow-tuto" transform="translate(-54.887 39.676) rotate(-56)">
    <path id="Tracé_36" data-name="Tracé 36" d="M56.807,43.365a27.788,27.788,0,0,1,4.364-5.618c.6-.6,1.22-1.183,1.857-1.751.423-.377.848-.756,1.287-1.128.809-.687,1.646-1.357,2.537-2.018.857-.636,1.737-1.271,2.68-1.9a.518.518,0,1,0-.5-.906,42.908,42.908,0,0,0-4.966,2.639q-.81.514-1.558,1.082t-1.462,1.222a22.814,22.814,0,0,0-2.578,2.817,27.062,27.062,0,0,0-2.956,4.861.737.737,0,1,0,1.3.7Z" transform="translate(-1.717)" fill="#a20a21" fill-rule="evenodd"/>
    <g id="Groupe_14" data-name="Groupe 14" transform="translate(52.845 38.049)">
      <path id="Tracé_37" data-name="Tracé 37" d="M54.049,64.41a.392.392,0,0,0,.009.07Z" transform="translate(-53.647 -60.997)" fill="#a20a21"/>
      <path id="Tracé_38" data-name="Tracé 38" d="M53.118,54.236a.519.519,0,0,0-.212.7l.34,2.65c0-.017.007-.029.025-.028s0,.037,0,.061c-.025.228-.084.637-.094.959,0,.124-.006.249,0,.373a1.619,1.619,0,0,0,.038.347c.024.1.081.171.105.266a1.089,1.089,0,0,0,.545.6,1.236,1.236,0,0,0,.513.14A2.05,2.05,0,0,0,55.416,60c.286-.148.63-.378.825-.5.021-.013.047-.041.055-.028s0,.027-.014.035l2.537-.836a.518.518,0,0,0,.048-1.035,8.216,8.216,0,0,0-1.221-.339,3.544,3.544,0,0,0-.9-.045,2.809,2.809,0,0,0-.767.173,3.55,3.55,0,0,0-.719.37l-.039.029c0-.023.008-.042.01-.053a3.565,3.565,0,0,0,.024-.809,2.811,2.811,0,0,0-.175-.766,3.541,3.541,0,0,0-.428-.791,8.192,8.192,0,0,0-.833-.955A.519.519,0,0,0,53.118,54.236Z" transform="translate(-52.845 -54.175)" fill="#a20a21"/>
      <path id="Tracé_39" data-name="Tracé 39" d="M63.016,70.166l-.067.022A.472.472,0,0,0,63.016,70.166Z" transform="translate(-59.58 -64.834)" fill="#a20a21"/>
    </g>
  </g>
</svg>
