<svg xmlns="http://www.w3.org/2000/svg" width="22" height="27" viewBox="0 0 22 27">
  <g id="bureau-bleu-f" transform="translate(-44.39)">
    <path id="Tracé_2160" data-name="Tracé 2160" d="M54.423,8.021h2.536V10.9h1.673V1.211A1.205,1.205,0,0,0,57.432,0H45.59a1.206,1.206,0,0,0-1.2,1.211V25.789A1.206,1.206,0,0,0,45.59,27h4.26V19.131h3.3V12.544A1.666,1.666,0,0,1,54.422,11V8.021h0Zm0-5.6h2.536V6.054H54.423ZM48.642,22.843H46.107V19.211h2.535v3.632Zm0-5.317H46.107V13.893h2.535v3.632Zm0-5.873H46.107V8.021h2.535v3.632Zm0-5.6H46.107V2.421h2.535V6.054Zm4.229,11.472H50.336V13.893h2.535Zm0-5.873H50.336V8.021h2.535Zm0-5.6H50.336V2.421h2.535Zm12.5,5.812H55.344c-.561,0-1.017.3-1.017.679V26.321c0,.375.455.679,1.017.679h3.609V22.589h2.9V27h3.523c.561,0,1.017-.3,1.017-.679V12.544C66.39,12.169,65.935,11.866,65.373,11.866Zm-7.445,12.8H55.781V22.634h2.147Zm0-2.98H55.781V19.654h2.147Zm0-3.291H55.781V16.362h2.147Zm0-3.139H55.781V13.223h2.147Zm3.582,6.431H59.363V19.654h2.147Zm0-3.291H59.363V16.362h2.147Zm0-3.139H59.363V13.223h2.147Zm3.462,9.456H62.825V22.679h2.147Zm0-3.026H62.825V19.654h2.147Zm0-3.291H62.825V16.362h2.147Zm0-3.139H62.825V13.223h2.147Z" transform="translate(0)" fill="#003753"/>
  </g>
</svg>
