<svg xmlns="http://www.w3.org/2000/svg" width="48" height="48" viewBox="0 0 48 48">
  <g id="bureau-bleu-c" transform="translate(-32.39 8)">
    <rect id="Rectangle_208" data-name="Rectangle 208" width="48" height="48" rx="4" transform="translate(32.39 -8)" fill="#fff"/>
    <path id="Tracé_2160" data-name="Tracé 2160" d="M55.335,8.912H58.1v3.2h1.825V1.345A1.327,1.327,0,0,0,58.618,0H45.7A1.328,1.328,0,0,0,44.39,1.345v27.31A1.328,1.328,0,0,0,45.7,30h4.648V21.256h3.6V13.938a1.844,1.844,0,0,1,1.387-1.713V8.913h0Zm0-6.222H58.1V6.726H55.335ZM49.029,25.381H46.263V21.346h2.766v4.036Zm0-5.908H46.263V15.437h2.766v4.036Zm0-6.525H46.263V8.912h2.766v4.036Zm0-6.222H46.263V2.691h2.766V6.727Zm4.613,12.747H50.876V15.437h2.765Zm0-6.525H50.876V8.912h2.765Zm0-6.222H50.876V2.691h2.765Zm13.639,6.457H56.34c-.612,0-1.109.337-1.109.754V29.246c0,.417.5.754,1.109.754h3.937V25.1h3.161V30h3.844c.612,0,1.109-.337,1.109-.754V13.938C68.39,13.522,67.893,13.184,67.281,13.184ZM59.159,27.411H56.817V25.149h2.342Zm0-3.312H56.817V21.837h2.342Zm0-3.657H56.817V18.18h2.342Zm0-3.488H56.817V14.692h2.342ZM63.067,24.1H60.725V21.837h2.343Zm0-3.657H60.725V18.18h2.343Zm0-3.488H60.725V14.692h2.343Zm3.777,10.507H64.5V25.2h2.342Zm0-3.362H64.5V21.837h2.342Zm0-3.657H64.5V18.18h2.342Zm0-3.488H64.5V14.692h2.342Z" transform="translate(0)" fill="#00aac7"/>
  </g>
</svg>
