<svg xmlns="http://www.w3.org/2000/svg" width="48" height="48.005" viewBox="0 0 48 48.005">
  <g id="customer" transform="translate(-0.024)">
    <g id="Groupe_658" data-name="Groupe 658" transform="translate(19.588)">
      <g id="Groupe_657" data-name="Groupe 657">
        <path id="Tracé_31936" data-name="Tracé 31936" d="M215.867,0a5.913,5.913,0,0,0-5.838,5.838,5.913,5.913,0,0,0,5.838,5.838,5.839,5.839,0,0,0,0-11.676Z" transform="translate(-210.029)" fill="#fafafa"/>
      </g>
    </g>
    <g id="Groupe_660" data-name="Groupe 660" transform="translate(16.71 11.388)">
      <g id="Groupe_659" data-name="Groupe 659">
        <path id="Tracé_31937" data-name="Tracé 31937" d="M195.111,122a8.561,8.561,0,0,1-6.373,2.871A8.771,8.771,0,0,1,182.269,122a8.548,8.548,0,0,0-2.24,5.742v1.436a1.435,1.435,0,0,0,1.436,1.436h14.452a1.435,1.435,0,0,0,1.436-1.436v-1.436A8.547,8.547,0,0,0,195.111,122Z" transform="translate(-180.029 -122)" fill="#fafafa"/>
      </g>
    </g>
    <g id="Groupe_662" data-name="Groupe 662" transform="translate(0.024 26.809)">
      <g id="Groupe_661" data-name="Groupe 661" transform="translate(0)">
        <path id="Tracé_31938" data-name="Tracé 31938" d="M13.894,306.789,6.578,292.122a2.871,2.871,0,0,0-3.844-1.291l-1.912.947a1.437,1.437,0,0,0-.646,1.929L8.79,310.934a1.437,1.437,0,0,0,1.922.645l1.888-.935A2.871,2.871,0,0,0,13.894,306.789Z" transform="translate(-0.024 -290.532)" fill="#fafafa"/>
      </g>
    </g>
    <g id="Groupe_664" data-name="Groupe 664" transform="translate(7.545 21.636)">
      <g id="Groupe_663" data-name="Groupe 663">
        <path id="Tracé_31939" data-name="Tracé 31939" d="M128.324,237.552a2.862,2.862,0,0,0-3.79.373l-7.848,9.647a3.47,3.47,0,0,1-2.125.919h-6.69a1.436,1.436,0,1,1,0-2.871h5.742a2.871,2.871,0,0,0,0-5.742h-7.522c-.715,0-1.072-.454-1.637-.948a9.989,9.989,0,0,0-8.912-2.182,10.473,10.473,0,0,0-4.408,2.2l-.043-.035-2.076,1.827,8.16,16.363h16.437a8.649,8.649,0,0,0,6.891-3.445l8.422-12.059A2.893,2.893,0,0,0,128.324,237.552Z" transform="translate(-89.016 -236.479)" fill="#fafafa"/>
      </g>
    </g>
  </g>
</svg>
