<svg xmlns="http://www.w3.org/2000/svg" width="16" height="16" viewBox="0 0 16 16">
  <g id="download" transform="translate(-24 -24)">
    <path id="Tracé_31957" data-name="Tracé 31957" d="M144.847,36.42a.826.826,0,0,0,1.168,0l3.114-3.114a.826.826,0,0,0-1.168-1.168l-1.7,1.7V24.826a.826.826,0,1,0-1.652,0v9.017l-1.7-1.7a.826.826,0,1,0-1.168,1.168Z" transform="translate(-113.431 0)" fill="#00aac7"/>
    <path id="Tracé_31958" data-name="Tracé 31958" d="M39.172,232a.827.827,0,0,0-.828.826v6.331H25.655v-6.331a.828.828,0,0,0-1.655,0v6.606a1.378,1.378,0,0,0,1.379,1.376H38.621A1.378,1.378,0,0,0,40,239.432v-6.606A.827.827,0,0,0,39.172,232Z" transform="translate(0 -200.808)" fill="#00aac7"/>
  </g>
</svg>
