<svg xmlns="http://www.w3.org/2000/svg" width="50.149" height="50.149" viewBox="0 0 50.149 50.149">
  <g id="empreinte-ID" transform="translate(-300.926 -583.926)">
    <g id="Groupe_512" data-name="Groupe 512" transform="translate(311.449 589.238)">
      <path id="Tracé_3733" data-name="Tracé 3733" d="M142.654-270.1a13.982,13.982,0,0,1,8.051,12.665v6.805" transform="translate(-123.012 271.416)" fill="none" stroke="#feffff" stroke-miterlimit="10" stroke-width="0.5"/>
      <path id="Tracé_3734" data-name="Tracé 3734" d="M6.5-256.523v-8.6A13.981,13.981,0,0,1,20.481-279.1a14.067,14.067,0,0,1,2.515.225" transform="translate(-6.5 279.1)" fill="none" stroke="#feffff" stroke-miterlimit="10" stroke-width="0.5"/>
      <path id="Tracé_3735" data-name="Tracé 3735" d="M34.213-112.458v1.492A13.914,13.914,0,0,1,20.366-96.985,13.91,13.91,0,0,1,6.523-110.652" transform="translate(-6.52 136.444)" fill="none" stroke="#feffff" stroke-miterlimit="10" stroke-width="0.5"/>
      <path id="Tracé_3736" data-name="Tracé 3736" d="M30.755-231.151a12.157,12.157,0,0,1-12.149-12.1V-255a12.157,12.157,0,0,1,12.149-12.1A12.157,12.157,0,0,1,42.9-255v11.755A12.157,12.157,0,0,1,30.755-231.151Z" transform="translate(-16.836 268.855)" fill="none" stroke="#feffff" stroke-miterlimit="10" stroke-width="0.5"/>
      <path id="Tracé_3737" data-name="Tracé 3737" d="M39.478-139.253a10.543,10.543,0,0,1-9.872-10.488v-8.133" transform="translate(-26.227 175.219)" fill="none" stroke="#feffff" stroke-miterlimit="10" stroke-width="0.5"/>
      <path id="Tracé_3738" data-name="Tracé 3738" d="M50.057-248.292a10.394,10.394,0,0,0-9.628-6.564A10.46,10.46,0,0,0,30.04-244.327" transform="translate(-26.598 258.401)" fill="none" stroke="#feffff" stroke-miterlimit="10" stroke-width="0.5"/>
      <path id="Tracé_3739" data-name="Tracé 3739" d="M174.04-168.526v-14.33" transform="translate(-149.809 196.719)" fill="none" stroke="#feffff" stroke-miterlimit="10" stroke-width="0.5"/>
      <path id="Tracé_3740" data-name="Tracé 3740" d="M59.319-220.753v-13.435a8.654,8.654,0,0,0-8.64-8.668,8.654,8.654,0,0,0-8.64,8.668v11.79a8.584,8.584,0,0,0,5.681,8.086l7.847,2.81" transform="translate(-36.843 248.156)" fill="none" stroke="#feffff" stroke-miterlimit="10" stroke-width="0.5"/>
      <path id="Tracé_3741" data-name="Tracé 3741" d="M58.063-226.509a7.134,7.134,0,0,0-4.024,6.53v11.573a7.289,7.289,0,0,0,4.724,6.861l8.945,3.294" transform="translate(-47.088 233.817)" fill="none" stroke="#feffff" stroke-miterlimit="10" stroke-width="0.5"/>
      <path id="Tracé_3742" data-name="Tracé 3742" d="M112.619-222.87v-.814a7.02,7.02,0,0,0-6.409-6.993" transform="translate(-91.811 237.673)" fill="none" stroke="#feffff" stroke-miterlimit="10" stroke-width="0.5"/>
      <path id="Tracé_3743" data-name="Tracé 3743" d="M150.04-144.2v-8.594" transform="translate(-129.251 171.035)" fill="none" stroke="#feffff" stroke-miterlimit="10" stroke-width="0.5"/>
      <path id="Tracé_3744" data-name="Tracé 3744" d="M123.048-55.661l5.35,2.067" transform="translate(-106.207 87.952)" fill="none" stroke="#feffff" stroke-miterlimit="10" stroke-width="0.5"/>
      <path id="Tracé_3745" data-name="Tracé 3745" d="M76.568-201.605v-12.076a5.22,5.22,0,0,0-5.264-5.175,5.22,5.22,0,0,0-5.264,5.175v11.175a5.754,5.754,0,0,0,3.742,5.365l1.261.479" transform="translate(-57.467 227.666)" fill="none" stroke="#feffff" stroke-miterlimit="10" stroke-width="0.5"/>
      <path id="Tracé_3746" data-name="Tracé 3746" d="M78.04-108.359a4.712,4.712,0,0,0,2.971,4.378L91.2-99.926" transform="translate(-67.768 133.023)" fill="none" stroke="#feffff" stroke-miterlimit="10" stroke-width="0.5"/>
      <path id="Tracé_3747" data-name="Tracé 3747" d="M85.059-191.721v-11.625a3.51,3.51,0,0,0-3.51-3.51,3.51,3.51,0,0,0-3.51,3.51v7.287" transform="translate(-67.712 217.257)" fill="none" stroke="#feffff" stroke-miterlimit="10" stroke-width="0.5"/>
      <path id="Tracé_3748" data-name="Tracé 3748" d="M93.549-181.988V-193.1a1.755,1.755,0,0,0-1.755-1.755A1.755,1.755,0,0,0,90.04-193.1v10.311a3.815,3.815,0,0,0,2.365,3.529l9.918,4.073" transform="translate(-78.092 206.942)" fill="none" stroke="#feffff" stroke-miterlimit="10" stroke-width="0.5"/>
      <path id="Tracé_3749" data-name="Tracé 3749" d="M101.29-180.356v9.621a2.8,2.8,0,0,0,1.712,2.58l9.666,4.074" transform="translate(-87.697 194.561)" fill="none" stroke="#feffff" stroke-miterlimit="10" stroke-width="0.5"/>
      <path id="Tracé_3750" data-name="Tracé 3750" d="M142.654-270.1a13.982,13.982,0,0,1,8.051,12.665v6.805" transform="translate(-123.012 271.416)" fill="none" stroke="#feffff" stroke-miterlimit="10" stroke-width="0.5"/>
      <path id="Tracé_3751" data-name="Tracé 3751" d="M6.5-256.523v-8.6A13.981,13.981,0,0,1,20.481-279.1a14.067,14.067,0,0,1,2.515.225" transform="translate(-6.5 279.1)" fill="none" stroke="#feffff" stroke-miterlimit="10" stroke-width="0.5"/>
      <path id="Tracé_3752" data-name="Tracé 3752" d="M34.213-112.458v1.492A13.914,13.914,0,0,1,20.366-96.985,13.91,13.91,0,0,1,6.523-110.652" transform="translate(-6.52 136.444)" fill="none" stroke="#feffff" stroke-miterlimit="10" stroke-width="0.5"/>
      <path id="Tracé_3753" data-name="Tracé 3753" d="M30.755-231.151a12.157,12.157,0,0,1-12.149-12.1V-255a12.157,12.157,0,0,1,12.149-12.1A12.157,12.157,0,0,1,42.9-255v11.755A12.157,12.157,0,0,1,30.755-231.151Z" transform="translate(-16.836 268.855)" fill="none" stroke="#feffff" stroke-miterlimit="10" stroke-width="0.5"/>
      <path id="Tracé_3754" data-name="Tracé 3754" d="M39.478-139.253a10.543,10.543,0,0,1-9.872-10.488v-8.133" transform="translate(-26.227 175.219)" fill="none" stroke="#feffff" stroke-miterlimit="10" stroke-width="0.5"/>
      <path id="Tracé_3755" data-name="Tracé 3755" d="M50.057-248.292a10.394,10.394,0,0,0-9.628-6.564A10.46,10.46,0,0,0,30.04-244.327" transform="translate(-26.598 258.401)" fill="none" stroke="#feffff" stroke-miterlimit="10" stroke-width="0.5"/>
      <path id="Tracé_3756" data-name="Tracé 3756" d="M174.04-168.526v-14.33" transform="translate(-149.809 196.719)" fill="none" stroke="#feffff" stroke-miterlimit="10" stroke-width="0.5"/>
      <path id="Tracé_3757" data-name="Tracé 3757" d="M59.319-220.753v-13.435a8.654,8.654,0,0,0-8.64-8.668,8.654,8.654,0,0,0-8.64,8.668v11.79a8.584,8.584,0,0,0,5.681,8.086l7.847,2.81" transform="translate(-36.843 248.156)" fill="none" stroke="#feffff" stroke-miterlimit="10" stroke-width="0.5"/>
      <path id="Tracé_3758" data-name="Tracé 3758" d="M58.063-226.509a7.134,7.134,0,0,0-4.024,6.53v11.573a7.289,7.289,0,0,0,4.724,6.861l8.945,3.294" transform="translate(-47.088 233.817)" fill="none" stroke="#feffff" stroke-miterlimit="10" stroke-width="0.5"/>
      <path id="Tracé_3759" data-name="Tracé 3759" d="M112.619-222.87v-.814a7.02,7.02,0,0,0-6.409-6.993" transform="translate(-91.811 237.673)" fill="none" stroke="#feffff" stroke-miterlimit="10" stroke-width="0.5"/>
      <path id="Tracé_3760" data-name="Tracé 3760" d="M150.04-144.2v-8.594" transform="translate(-129.251 171.035)" fill="none" stroke="#feffff" stroke-miterlimit="10" stroke-width="0.5"/>
      <path id="Tracé_3761" data-name="Tracé 3761" d="M123.048-55.661l5.35,2.067" transform="translate(-106.207 87.952)" fill="none" stroke="#feffff" stroke-miterlimit="10" stroke-width="0.5"/>
      <path id="Tracé_3762" data-name="Tracé 3762" d="M76.568-201.605v-12.076a5.22,5.22,0,0,0-5.264-5.175,5.22,5.22,0,0,0-5.264,5.175v11.175a5.754,5.754,0,0,0,3.742,5.365l1.261.479" transform="translate(-57.467 227.666)" fill="none" stroke="#feffff" stroke-miterlimit="10" stroke-width="0.5"/>
      <path id="Tracé_3763" data-name="Tracé 3763" d="M78.04-108.359a4.712,4.712,0,0,0,2.971,4.378L91.2-99.926" transform="translate(-67.768 133.023)" fill="none" stroke="#feffff" stroke-miterlimit="10" stroke-width="0.5"/>
      <path id="Tracé_3764" data-name="Tracé 3764" d="M85.059-191.721v-11.625a3.51,3.51,0,0,0-3.51-3.51,3.51,3.51,0,0,0-3.51,3.51v7.287" transform="translate(-67.712 217.257)" fill="none" stroke="#feffff" stroke-miterlimit="10" stroke-width="0.5"/>
      <path id="Tracé_3765" data-name="Tracé 3765" d="M93.549-181.988V-193.1a1.755,1.755,0,0,0-1.755-1.755A1.755,1.755,0,0,0,90.04-193.1v10.311a3.815,3.815,0,0,0,2.365,3.529l9.918,4.073" transform="translate(-78.092 206.942)" fill="none" stroke="#feffff" stroke-miterlimit="10" stroke-width="0.5"/>
      <path id="Tracé_3766" data-name="Tracé 3766" d="M101.29-180.356v9.621a2.8,2.8,0,0,0,1.712,2.58l9.666,4.074" transform="translate(-87.697 194.561)" fill="none" stroke="#feffff" stroke-miterlimit="10" stroke-width="0.5"/>
    </g>
    <g id="Groupe_513" data-name="Groupe 513" transform="translate(302 585)">
      <path id="Tracé_3767" data-name="Tracé 3767" d="M9.568-53.018H1.074v-8.3" transform="translate(-1.074 101.018)" fill="none" stroke="#fff" stroke-linecap="round" stroke-linejoin="round" stroke-width="2.149"/>
      <path id="Tracé_3768" data-name="Tracé 3768" d="M297.9-61.314v8.3H289.4" transform="translate(-249.896 101.018)" fill="none" stroke="#fff" stroke-linecap="round" stroke-linejoin="round" stroke-width="2.149"/>
      <path id="Tracé_3769" data-name="Tracé 3769" d="M9.568-351.075H1.074v8.3" transform="translate(-1.074 351.075)" fill="none" stroke="#fff" stroke-linecap="round" stroke-linejoin="round" stroke-width="2.149"/>
      <path id="Tracé_3770" data-name="Tracé 3770" d="M297.9-342.778v-8.3H289.4" transform="translate(-249.896 351.075)" fill="none" stroke="#fff" stroke-linecap="round" stroke-linejoin="round" stroke-width="2.149"/>
    </g>
  </g>
</svg>
