<svg id="etiquette-de-vente" xmlns="http://www.w3.org/2000/svg" width="24.003" height="24.003" viewBox="0 0 24.003 24.003">
  <path id="Tracé_3776" data-name="Tracé 3776" d="M210.574,258.95l.927-.927-2.1-1.172Zm0,0" transform="translate(-199.585 -244.81)" fill="#fff"/>
  <path id="Tracé_3777" data-name="Tracé 3777" d="M21.416,0H15.862a5.94,5.94,0,0,0-3.712,1.538l-11.4,11.4a2.592,2.592,0,0,0,0,3.657l6.657,6.658a2.592,2.592,0,0,0,3.658,0l11.4-11.4A5.94,5.94,0,0,0,24,8.141V2.586A2.589,2.589,0,0,0,21.416,0ZM20.068,4.969a.7.7,0,1,1,.206-.5A.709.709,0,0,1,20.068,4.969Zm0,0" fill="#fff"/>
</svg>
