<svg id="etiquette-de-vente-blue" xmlns="http://www.w3.org/2000/svg" width="22" height="22" viewBox="0 0 22 22">
  <path id="Tracé_3776" data-name="Tracé 3776" d="M210.623,259.038l.965-.965-2.186-1.221Zm0,0" transform="translate(-200.522 -245.959)" fill="#003753"/>
  <path id="Tracé_3777" data-name="Tracé 3777" d="M19.629,0H14.539a5.445,5.445,0,0,0-3.4,1.409L.692,11.854a2.375,2.375,0,0,0,0,3.352l6.1,6.1a2.376,2.376,0,0,0,3.352,0L20.591,10.863A5.445,5.445,0,0,0,22,7.461V2.37A2.373,2.373,0,0,0,19.629,0ZM18.394,4.555a.645.645,0,1,1,.189-.456A.65.65,0,0,1,18.394,4.555Zm0,0" fill="#003753"/>
</svg>
