<svg xmlns="http://www.w3.org/2000/svg" width="22" height="22" viewBox="0 0 22 22">
  <path id="etoile" d="M21.942,8.809a1.179,1.179,0,0,0-1.006-.838l-6.351-.6-2.51-6.132a1.151,1.151,0,0,0-2.151,0L7.414,7.369l-6.352.6a1.183,1.183,0,0,0-1.006.838,1.257,1.257,0,0,0,.341,1.3L5.2,14.5,3.783,21a1.247,1.247,0,0,0,.455,1.26,1.126,1.126,0,0,0,1.285.059L11,18.906l5.475,3.417a1.128,1.128,0,0,0,1.286-.059A1.247,1.247,0,0,0,18.216,21L16.8,14.5l4.8-4.393a1.256,1.256,0,0,0,.341-1.3ZM11.1,18.84" transform="translate(0 -0.496)" fill="#003753"/>
</svg>
