<svg xmlns="http://www.w3.org/2000/svg" width="22" height="22" viewBox="0 0 22 22">
  <path id="euro-sign" d="M12.5,1.5a11,11,0,1,0,11,11,11,11,0,0,0-11-11Zm4.484,15.2A5.559,5.559,0,0,1,8.1,14.4H7.032a.733.733,0,1,1,0-1.467h.749c-.011-.141-.023-.287-.023-.434s.011-.293.022-.436H7.032a.733.733,0,0,1,0-1.467H8.1a5.569,5.569,0,0,1,5.222-3.662,5.508,5.508,0,0,1,3.437,1.188.733.733,0,1,1-.906,1.153A4.058,4.058,0,0,0,13.322,8.4,4.1,4.1,0,0,0,9.7,10.6h3.051a.733.733,0,1,1,0,1.467H9.25a4.139,4.139,0,0,0-.025.436,4.2,4.2,0,0,0,.023.432h3.5a.733.733,0,0,1,0,1.467H9.7A4.095,4.095,0,0,0,16.02,15.59a.733.733,0,1,1,.965,1.1Z" transform="translate(-1.5 -1.5)" fill="#003753"/>
</svg>
