<svg id="filter" xmlns="http://www.w3.org/2000/svg" width="24" height="22" viewBox="0 0 24 22">
  <path id="Tracé_13867" data-name="Tracé 13867" d="M3.923,8.943H7.615a1.914,1.914,0,0,0,1.846,1.972h1.846a1.914,1.914,0,0,0,1.846-1.972H26.077a.988.988,0,0,0,0-1.972H13.154A1.914,1.914,0,0,0,11.308,5H9.462A1.914,1.914,0,0,0,7.615,6.972H3.923a.988.988,0,0,0,0,1.972Z" transform="translate(-3 -5)" fill="#003753"/>
  <path id="Tracé_13868" data-name="Tracé 13868" d="M26.077,14.972H20.538A1.914,1.914,0,0,0,18.692,13H16.846A1.914,1.914,0,0,0,15,14.972H3.923a.988.988,0,0,0,0,1.972H15a1.914,1.914,0,0,0,1.846,1.972h1.846a1.914,1.914,0,0,0,1.846-1.972h5.538a.988.988,0,0,0,0-1.972Z" transform="translate(-3 -4.957)" fill="#003753"/>
  <path id="Tracé_13869" data-name="Tracé 13869" d="M26.077,22.972H13.154A1.914,1.914,0,0,0,11.308,21H9.462a1.914,1.914,0,0,0-1.846,1.972H3.923a.988.988,0,0,0,0,1.972H7.615a1.914,1.914,0,0,0,1.846,1.972h1.846a1.914,1.914,0,0,0,1.846-1.972H26.077a.988.988,0,0,0,0-1.972Z" transform="translate(-3 -4.915)" fill="#003753"/>
</svg>
