<svg id="internet" xmlns="http://www.w3.org/2000/svg" width="22" height="22" viewBox="0 0 22 22">
  <path id="Tracé_31917" data-name="Tracé 31917" d="M184.887,3.656a12.354,12.354,0,0,0-2.08-3.627Q182.407,0,182,0t-.8.029a12.344,12.344,0,0,0-2.08,3.627q-.272.706-.489,1.461h6.747Q185.158,4.364,184.887,3.656Zm0,0" transform="translate(-171.002)" fill="#003753"/>
  <path id="Tracé_31918" data-name="Tracé 31918" d="M160.5,275.136h7.407a22.644,22.644,0,0,0,.486-4.136h-8.38A22.642,22.642,0,0,0,160.5,275.136Zm0,0" transform="translate(-153.202 -259.41)" fill="#003753"/>
  <path id="Tracé_31919" data-name="Tracé 31919" d="M167.905,146.684H160.5a22.644,22.644,0,0,0-.486,4.136h8.38A22.643,22.643,0,0,0,167.905,146.684Zm0,0" transform="translate(-153.202 -140.41)" fill="#003753"/>
  <path id="Tracé_31920" data-name="Tracé 31920" d="M179.118,396.777a12.354,12.354,0,0,0,2.08,3.627q.4.028.8.029t.8-.029a12.347,12.347,0,0,0,2.08-3.627q.272-.706.489-1.461h-6.747Q178.846,396.07,179.118,396.777Zm0,0" transform="translate(-171.002 -378.433)" fill="#003753"/>
  <path id="Tracé_31921" data-name="Tracé 31921" d="M370.594,146.661a24.105,24.105,0,0,1,.461,4.136h5.7a11.153,11.153,0,0,0-1.049-4.137h-5.113Zm0,0" transform="translate(-354.756 -140.388)" fill="#003753"/>
  <path id="Tracé_31922" data-name="Tracé 31922" d="M6.162,275.136A24.088,24.088,0,0,1,5.7,271H0a11.153,11.153,0,0,0,1.049,4.137H6.162Zm0,0" transform="translate(0 -259.41)" fill="#003753"/>
  <path id="Tracé_31923" data-name="Tracé 31923" d="M318.268,395.316a16.576,16.576,0,0,1-2.077,4.8,11.155,11.155,0,0,0,5.279-2.972,11.328,11.328,0,0,0,1.484-1.829Zm0,0" transform="translate(-302.739 -378.433)" fill="#003753"/>
  <path id="Tracé_31924" data-name="Tracé 31924" d="M45.389,12a16.58,16.58,0,0,1,2.077-4.8,11.157,11.157,0,0,0-5.279,2.972A11.336,11.336,0,0,0,40.7,12Zm0,0" transform="translate(-38.918 -6.884)" fill="#003753"/>
  <path id="Tracé_31925" data-name="Tracé 31925" d="M45.389,395.316H40.7a11.336,11.336,0,0,0,1.483,1.829,11.156,11.156,0,0,0,5.279,2.972A16.585,16.585,0,0,1,45.389,395.316Zm0,0" transform="translate(-38.918 -378.433)" fill="#003753"/>
  <path id="Tracé_31926" data-name="Tracé 31926" d="M318.268,12h4.686a11.327,11.327,0,0,0-1.483-1.829A11.156,11.156,0,0,0,316.191,7.2,16.576,16.576,0,0,1,318.268,12Zm0,0" transform="translate(-302.739 -6.884)" fill="#003753"/>
  <path id="Tracé_31927" data-name="Tracé 31927" d="M371.055,271a24.087,24.087,0,0,1-.461,4.136h5.113A11.153,11.153,0,0,0,376.756,271Zm0,0" transform="translate(-354.756 -259.41)" fill="#003753"/>
  <path id="Tracé_31928" data-name="Tracé 31928" d="M5.7,150.8a24.089,24.089,0,0,1,.461-4.136H1.049A11.153,11.153,0,0,0,0,150.8Zm0,0" transform="translate(0 -140.388)" fill="#003753"/>
</svg>
