<svg xmlns="http://www.w3.org/2000/svg" width="22" height="22" viewBox="0 0 22 22">
  <path id="service-clients" d="M22.979,10.91a10.424,10.424,0,0,0-19.958,0A1.847,1.847,0,0,0,2,12.558v2.958a1.843,1.843,0,0,0,1.833,1.849h.733a1.1,1.1,0,0,0,1.089-.994,7.681,7.681,0,0,0,14.689,0,1.1,1.1,0,0,0,1.089.994h.312a9.425,9.425,0,0,1-7.437,6,1.463,1.463,0,0,0-1.7-.774,1.477,1.477,0,1,0,1.78,1.881,10.534,10.534,0,0,0,8.59-7.309A1.847,1.847,0,0,0,24,15.516V12.558A1.847,1.847,0,0,0,22.979,10.91Zm-6.814,5.553a3.292,3.292,0,0,1-6.329,0,.745.745,0,0,1,.119-.652.731.731,0,0,1,.589-.294h4.913a.731.731,0,0,1,.589.294A.745.745,0,0,1,16.165,16.462Zm-6.1-3.9v-.74a.733.733,0,1,1,1.467,0v.74a.733.733,0,1,1-1.467,0Zm4.4,0v-.74a.733.733,0,1,1,1.467,0v.74a.733.733,0,1,1-1.467,0Zm5.878-.855a7.681,7.681,0,0,0-14.689,0,1.1,1.1,0,0,0-1.089-.994H4.255a9.318,9.318,0,0,1,17.49,0h-.312a1.1,1.1,0,0,0-1.089.994Z" transform="translate(-2 -3.499)" fill="#003753"/>
</svg>
