<svg id="shop-bleu-f" xmlns="http://www.w3.org/2000/svg" width="28" height="28" viewBox="0 0 28 28">
  <g id="Glyph" transform="translate(0 0)">
    <path id="Tracé_2163" data-name="Tracé 2163" d="M28,32H0v1.206a2.374,2.374,0,0,0,2.333,2.413h3.5a2.374,2.374,0,0,0,2.333-2.413A2.374,2.374,0,0,0,10.5,35.619h7a2.374,2.374,0,0,0,2.333-2.413,2.374,2.374,0,0,0,2.333,2.413h3.5A2.374,2.374,0,0,0,28,33.206V32Z" transform="translate(0 -22.712)" fill="#003753"/>
    <path id="Tracé_2164" data-name="Tracé 2164" d="M74.527,8.444,72.364.875A1.206,1.206,0,0,0,71.2,0H65.679l1.689,8.444Z" transform="translate(-46.823 0)" fill="#003753"/>
    <path id="Tracé_2165" data-name="Tracé 2165" d="M9.831,0H4.305a1.206,1.206,0,0,0-1.16.875L.983,8.444H8.142Z" transform="translate(-0.687 0)" fill="#003753"/>
    <path id="Tracé_2166" data-name="Tracé 2166" d="M40.31,0H34.568L32.879,8.444H42Z" transform="translate(-23.439 0)" fill="#003753"/>
    <path id="Tracé_2167" data-name="Tracé 2167" d="M24.935,45.861a3.406,3.406,0,0,1-2.326-.924,3.406,3.406,0,0,1-2.326.924H13.3a3.406,3.406,0,0,1-2.326-.924,3.406,3.406,0,0,1-2.326.924H5.163A3.355,3.355,0,0,1,4,45.65V59.13a1.185,1.185,0,0,0,1.163,1.206H7.489V49.48a1.185,1.185,0,0,1,1.163-1.206h5.815a1.185,1.185,0,0,1,1.163,1.206V60.336H28.424a1.185,1.185,0,0,0,1.163-1.206V45.65a3.355,3.355,0,0,1-1.163.211ZM26.1,53.1A1.185,1.185,0,0,1,24.935,54.3H19.12A1.185,1.185,0,0,1,17.957,53.1V49.48a1.185,1.185,0,0,1,1.163-1.206h5.815A1.185,1.185,0,0,1,26.1,49.48Z" transform="translate(-2.794 -32.336)" fill="#003753"/>
  </g>
</svg>
