<svg id="shop"
  xmlns="http://www.w3.org/2000/svg" width="24.003" height="24.003" viewBox="0 0 24.003 24.003">
  <g id="Glyph" transform="translate(0 0)">
    <path id="Tracé_2163" data-name="Tracé 2163" d="M24,32H0v1.034A2.035,2.035,0,0,0,2,35.1H5a2.035,2.035,0,0,0,2-2.068A2.035,2.035,0,0,0,9,35.1h6a2.035,2.035,0,0,0,2-2.068A2.035,2.035,0,0,0,19,35.1h3a2.035,2.035,0,0,0,2-2.068V32Z" transform="translate(0 -24.038)"/>
    <path id="Tracé_2164" data-name="Tracé 2164" d="M73.264,7.239,71.41.75A1.034,1.034,0,0,0,70.415,0H65.679l1.448,7.239Z" transform="translate(-49.515 0)"/>
    <path id="Tracé_2165" data-name="Tracé 2165" d="M8.568,0H3.831a1.034,1.034,0,0,0-.994.75L.983,7.239H7.12Z" transform="translate(-0.729 0)"/>
    <path id="Tracé_2166" data-name="Tracé 2166" d="M39.25,0H34.327L32.879,7.239H40.7Z" transform="translate(-24.787 0)"/>
    <path id="Tracé_2167" data-name="Tracé 2167" d="M21.947,45.729a2.92,2.92,0,0,1-1.994-.792,2.92,2.92,0,0,1-1.994.792H11.976a2.92,2.92,0,0,1-1.994-.792,2.92,2.92,0,0,1-1.994.792H5a2.876,2.876,0,0,1-1-.181V57.1a1.016,1.016,0,0,0,1,1.034H6.991V48.831a1.016,1.016,0,0,1,1-1.034h4.985a1.016,1.016,0,0,1,1,1.034v9.307H24.938a1.016,1.016,0,0,0,1-1.034V45.548a2.876,2.876,0,0,1-1,.181Zm1,6.2a1.016,1.016,0,0,1-1,1.034H16.961a1.016,1.016,0,0,1-1-1.034v-3.1a1.016,1.016,0,0,1,1-1.034h4.985a1.016,1.016,0,0,1,1,1.034Z" transform="translate(-2.966 -34.135)"/>
  </g>
</svg>
