<svg id="statistique" xmlns="http://www.w3.org/2000/svg" width="22" height="20" viewBox="0 0 22 20">
  <g id="Groupe_571" data-name="Groupe 571" transform="translate(0 8.957)">
    <g id="Groupe_570" data-name="Groupe 570" transform="translate(0 0)">
      <path id="Tracé_13893" data-name="Tracé 13893" d="M5.521,239.3H.74a.74.74,0,0,0-.74.74v9.562a.74.74,0,0,0,.74.74H5.521a.74.74,0,0,0,.74-.74v-9.562A.74.74,0,0,0,5.521,239.3Z" transform="translate(0 -239.304)" fill="#003753"/>
    </g>
  </g>
  <g id="Groupe_573" data-name="Groupe 573" transform="translate(7.869 0)">
    <g id="Groupe_572" data-name="Groupe 572" transform="translate(0 0)">
      <path id="Tracé_13894" data-name="Tracé 13894" d="M190.914,23.658h-4.781a.73.73,0,0,0-.74.719V42.939a.73.73,0,0,0,.74.719h4.781a.73.73,0,0,0,.74-.719V24.377A.73.73,0,0,0,190.914,23.658Z" transform="translate(-185.393 -23.658)" fill="#003753"/>
    </g>
  </g>
  <g id="Groupe_575" data-name="Groupe 575" transform="translate(15.738 4.176)">
    <g id="Groupe_574" data-name="Groupe 574" transform="translate(0 0)">
      <path id="Tracé_13895" data-name="Tracé 13895" d="M376.306,131.48h-4.781a.74.74,0,0,0-.74.74v14.343a.74.74,0,0,0,.74.74h4.781a.74.74,0,0,0,.74-.74V132.22A.74.74,0,0,0,376.306,131.48Z" transform="translate(-370.785 -131.48)" fill="#003753"/>
    </g>
  </g>
</svg>
