<svg width="75" height="75" viewBox="0 0 75 75" fill="none" xmlns="http://www.w3.org/2000/svg">
<circle cx="37.5" cy="37.5" r="34.5" fill="#23ECA3" stroke="white" stroke-width="6"/>
<g clip-path="url(#clip0_86_2)">
<path d="M33.7848 51.4407C33.6168 51.617 33.4151 51.7574 33.1918 51.8533C32.9686 51.9491 32.7284 51.9986 32.4857 51.9986C32.243 51.9986 32.0028 51.9491 31.7795 51.8533C31.5563 51.7574 31.3546 51.617 31.1866 51.4407L20.8062 40.6713C20.2876 40.1274 19.998 39.4026 19.998 38.6486C19.998 37.8945 20.2876 37.1697 20.8062 36.6258L22.1064 35.2773C22.3584 35.0108 22.6616 34.7987 22.9976 34.6537C23.3335 34.5088 23.6952 34.434 24.0606 34.434C24.4261 34.434 24.7878 34.5088 25.1237 34.6537C25.4597 34.7987 25.7629 35.0108 26.0149 35.2773L32.4949 41.9991L50.0033 23.8347C50.2553 23.5683 50.5585 23.3561 50.8945 23.2112C51.2304 23.0662 51.5921 22.9915 51.9576 22.9915C52.323 22.9915 52.6847 23.0662 53.0206 23.2112C53.3566 23.3561 53.6598 23.5683 53.9118 23.8347L55.212 25.1832C55.7306 25.7272 56.0202 26.452 56.0202 27.206C56.0202 27.96 55.7306 28.6848 55.212 29.2287L33.7848 51.4407Z" fill="white"/>
</g>
<defs>
<clipPath id="clip0_86_2">
<rect width="36" height="29" fill="white" transform="translate(20 23)"/>
</clipPath>
</defs>
</svg>