<svg xmlns="http://www.w3.org/2000/svg" width="28" height="28" viewBox="0 0 28 28">
  <g id="user-jaune" transform="translate(-3 -3)">
    <path id="Tracé_2161" data-name="Tracé 2161" d="M12.123,16.645a7.462,7.462,0,0,0,4.415,1.432,7.7,7.7,0,0,0,7.538-7.538,7.538,7.538,0,1,0-11.954,6.106Z" transform="translate(0.462 0)" fill="#ffbe00"/>
    <path id="Tracé_2162" data-name="Tracé 2162" d="M23.634,16.55a9.659,9.659,0,0,1-13.268,0A14.021,14.021,0,0,0,3,28.881a1.08,1.08,0,0,0,1.077,1.077H29.923A1.08,1.08,0,0,0,31,28.881,14.021,14.021,0,0,0,23.634,16.55Z" transform="translate(0 1.042)" fill="#ffbe00"/>
  </g>
</svg>
