<svg xmlns="http://www.w3.org/2000/svg" width="27.845" height="18" viewBox="0 0 27.845 18">
  <g id="view-mdp-active" transform="translate(0 -91.866)">
    <circle id="Ellipse_30" data-name="Ellipse 30" cx="4.695" cy="4.695" r="4.695" transform="translate(9.228 96.173)" fill="#fff"/>
    <path id="Tracé_2157" data-name="Tracé 2157" d="M27.419,99.681c-3.3-3.982-8.283-7.815-13.5-7.815S3.721,95.7.428,99.681a1.864,1.864,0,0,0,0,2.375,27.907,27.907,0,0,0,4.882,4.619c5.838,4.25,11.377,4.259,17.228,0a27.907,27.907,0,0,0,4.882-4.619A1.864,1.864,0,0,0,27.419,99.681Zm-13.5-4.814a6,6,0,1,1-6,6A6.008,6.008,0,0,1,13.923,94.867Z" transform="translate(0 0)" fill="#fff"/>
  </g>
</svg>
