<svg xmlns="http://www.w3.org/2000/svg" width="28" height="30" viewBox="0 0 28 30">
  <g id="cliquez-sur" transform="translate(-20.333 1)">
    <g id="Groupe_31625" data-name="Groupe 31625" transform="translate(21.333)">
      <g id="Tracé_133501" data-name="Tracé 133501" transform="translate(-21.333)" fill="#e9ad00">
        <path d="M 35.49293899536133 28.5 C 34.61359024047852 28.5 33.74174118041992 28.36849975585938 32.9015998840332 28.10917091369629 L 24.55511093139648 25.53433990478516 C 24.27424049377441 25.4478702545166 24.03689002990723 25.2485294342041 23.90419006347656 24.98749923706055 L 23.46417045593262 24.11935043334961 C 23.28901100158691 23.77215957641602 23.1966495513916 23.38501930236816 23.1966495513916 22.99893951416016 C 23.1966495513916 22.33105087280273 23.46031951904297 21.70293998718262 23.93910026550293 21.23030090332031 C 24.41611099243164 20.7593879699707 25.04907989501953 20.50004959106445 25.72138404846191 20.50004959106445 C 25.7214241027832 20.50004959106445 25.72145843505859 20.50004959106445 25.72150039672852 20.50004959106445 L 30.64781951904297 20.50004959106445 C 30.66615104675293 20.50004959106445 30.70027923583984 20.50004959106445 30.72637939453125 20.4582691192627 C 30.75012969970703 20.42064094543457 30.73834991455078 20.39743995666504 30.73056030273438 20.38208961486816 L 25.35193634033203 9.762710571289062 C 24.15845489501953 9.601357460021973 23.05929756164551 9.041091918945312 22.2319507598877 8.166740417480469 C 21.32983016967773 7.213339805603027 20.83300018310547 5.970320224761963 20.83300018310547 4.66664981842041 C 20.83300018310547 1.817749977111816 23.17794990539551 -0.5 26.06028938293457 -0.5 C 28.94260025024414 -0.5 31.28753089904785 1.817749977111816 31.28753089904785 4.66664981842041 C 31.28753089904785 5.523480415344238 31.05437278747559 6.378464221954346 30.61087989807129 7.156193256378174 L 32.04884719848633 9.99555778503418 C 32.73065185546875 9.264701843261719 33.70145797729492 8.834230422973633 34.73838043212891 8.834230422973633 C 34.90643310546875 8.834230422973633 35.0756950378418 8.845973014831543 35.24211120605469 8.869170188903809 L 35.24390029907227 8.869170188903809 L 35.28179168701172 8.874839782714844 L 41.56304168701172 9.82903003692627 C 42.66794204711914 9.99683952331543 43.62638092041016 10.68733024597168 44.12686157226562 11.67611026763916 L 47.27862167358398 17.8978099822998 C 47.64128875732422 18.61507987976074 47.83293151855469 19.41699981689453 47.83300018310547 20.21722030639648 C 47.83300018310547 22.19429969787598 46.72183990478516 23.97050094604492 44.93315124511719 24.85272026062012 L 39.3779296875 27.59441947937012 C 38.17906951904297 28.18681907653809 36.83557891845703 28.5 35.49293899536133 28.5 Z M 26.06028938293457 1.666650056838989 C 24.38103103637695 1.666650056838989 23.01485061645508 3.012439966201782 23.01485061645508 4.66664981842041 C 23.01485061645508 5.406826019287109 23.29043960571289 6.094310283660889 23.76201248168945 6.623515605926514 L 23.50564956665039 6.117350101470947 C 23.30355072021484 5.719009876251221 23.1966495513916 5.27184009552002 23.1966495513916 4.824480056762695 C 23.1966495513916 3.147209882736206 24.47784996032715 1.833349943161011 26.1134204864502 1.833349943161011 C 27.22459030151367 1.833349943161011 28.2240104675293 2.443700075149536 28.7216796875 3.426209926605225 L 29.04350662231445 4.061653137207031 C 28.75860404968262 2.69643759727478 27.52923202514648 1.666650056838989 26.06028938293457 1.666650056838989 Z" stroke="none"/>
        <path d="M 35.49293899536133 28 C 36.75844192504883 28 38.02566146850586 27.70491027832031 39.15665054321289 27.14604949951172 L 44.71197891235352 24.40430068969727 C 46.32891845703125 23.60679054260254 47.33300018310547 22.00204086303711 47.33300018310547 20.21726036071777 C 47.33293914794922 19.49494934082031 47.15982055664062 18.77094078063965 46.83259201049805 18.12376022338867 L 43.68075180053711 11.90190982818604 C 43.25313949584961 11.05710029602051 42.43313980102539 10.46691036224365 41.48794937133789 10.32336044311523 L 35.20613861083984 9.369170188903809 C 33.90663146972656 9.17376708984375 32.59957885742188 9.811213493347168 31.97060012817383 10.94773006439209 L 30.03949928283691 7.134640216827393 C 30.52073097229004 6.385910034179688 30.78753089904785 5.544000148773193 30.78753089904785 4.66664981842041 C 30.78753089904785 2.0934898853302 28.66686058044434 -1.77635683940025e-15 26.06028938293457 -1.77635683940025e-15 C 23.4537296295166 -1.77635683940025e-15 21.33300018310547 2.0934898853302 21.33300018310547 4.66664981842041 C 21.33300018310547 7.10975980758667 23.25119972229004 9.097920417785645 25.67550086975098 9.294960021972656 L 31.17642021179199 20.15579032897949 C 31.3097095489502 20.41839981079102 31.20296096801758 20.63998985290527 31.15044021606445 20.72316932678223 C 31.09848022460938 20.80635070800781 30.94557952880859 21.00004959106445 30.64781951904297 21.00004959106445 L 25.72147941589355 21.00004959106445 C 24.60494041442871 21 23.6966495513916 21.89665985107422 23.6966495513916 22.99893951416016 C 23.6966495513916 23.30710029602051 23.7704906463623 23.61647033691406 23.9101505279541 23.8932991027832 L 24.34989929199219 24.76091003417969 C 24.42201995849609 24.90276908874512 24.54899024963379 25.00930023193359 24.70249938964844 25.05656051635742 L 33.04907989501953 27.63141059875488 C 33.8408203125 27.87581062316895 34.66308975219727 28 35.49293899536133 28 M 26.06028938293457 1.166650056838989 C 28.015380859375 1.166650056838989 29.6057300567627 2.73661994934082 29.6057300567627 4.66664981842041 C 29.6057300567627 5.071609973907471 29.52701950073242 5.46688985824585 29.38581085205078 5.844180107116699 L 28.2756404876709 3.652139902114868 C 27.86359024047852 2.838660001754761 27.03495979309082 2.333349943161011 26.1134204864502 2.333349943161011 C 24.78094100952148 2.333349943161011 23.6966495513916 3.403749942779541 23.6966495513916 4.824480056762695 C 23.6966495513916 5.193620204925537 23.78495025634766 5.562759876251221 23.95170021057129 5.891429901123047 L 25.01666069030762 7.994110107421875 C 23.57299995422363 7.551139831542969 22.51485061645508 6.235690116882324 22.51485061645508 4.66664981842041 C 22.51485061645508 2.73661994934082 24.10519981384277 1.166650056838989 26.06028938293457 1.166650056838989 M 35.49293899536133 29 C 34.56354904174805 29 33.6420783996582 28.86101913452148 32.75413131713867 28.5869197845459 L 24.4077205657959 26.01211929321289 C 23.99840927124023 25.88611030578613 23.65221977233887 25.59518051147461 23.45848083496094 25.2140998840332 L 23.01818084716797 24.34539985656738 C 22.80754089355469 23.92787933349609 22.6966495513916 23.46286010742188 22.6966495513916 22.99893951416016 C 22.6966495513916 21.34535026550293 24.05353927612305 20.00004959106445 25.72138977050781 20.00004959106445 L 29.97659111022949 20.00004959106445 L 25.02124214172363 10.21638774871826 C 23.81688690185547 9.997028350830078 22.71364784240723 9.403282165527344 21.86877059936523 8.510390281677246 C 20.87841033935547 7.463749885559082 20.33300018310547 6.098690032958984 20.33300018310547 4.66664981842041 C 20.33300018310547 1.542050004005432 22.90225028991699 -1 26.06028938293457 -1 C 29.21829986572266 -1 31.78753089904785 1.542050004005432 31.78753089904785 4.66664981842041 C 31.78753089904785 5.522838592529297 31.5771656036377 6.375710487365723 31.17504692077637 7.163501262664795 L 32.19992065429688 9.18718433380127 C 32.91435241699219 8.643277168273926 33.80281448364258 8.334230422973633 34.73838043212891 8.334230422973633 C 34.91752243041992 8.334230422973633 35.09788131713867 8.345969200134277 35.27568054199219 8.369170188903809 L 35.28166198730469 8.369170188903809 L 35.35689163208008 8.380510330200195 L 41.63814163208008 9.334699630737305 C 42.90248870849609 9.526729583740234 43.99964141845703 10.3176097869873 44.57297134399414 11.4503002166748 L 47.72465896606445 17.67185974121094 C 48.1226806640625 18.45906066894531 48.33293151855469 19.33897972106934 48.33300018310547 20.2171802520752 C 48.33300018310547 22.38607025146484 47.1150016784668 24.3341007232666 45.15431976318359 25.30114936828613 L 39.59922027587891 28.04277992248535 C 38.33206939697266 28.66893005371094 36.91199111938477 29 35.49293899536133 29 Z" stroke="none" fill="#1e252d"/>
      </g>
    </g>
  </g>
</svg>
