<svg xmlns="http://www.w3.org/2000/svg" width="24" height="24" viewBox="0 0 24 24">
  <g id="aide" transform="translate(0)">
    <rect id="Rectangle_275" data-name="Rectangle 275" width="24" height="24" rx="4" transform="translate(0)" fill="#00aac7"/>
    <path id="Tracé_31911" data-name="Tracé 31911" d="M6.79,4.94a8.516,8.516,0,0,1,2.972.484,4.5,4.5,0,0,1,2.06,1.463,3.884,3.884,0,0,1,.754,2.442A4.382,4.382,0,0,1,12,11.7a3.622,3.622,0,0,1-1.553,1.369,7,7,0,0,1-2.15.6L8.073,15.7H4.7l.023-3.587a9.728,9.728,0,0,0,2.24-.437,2.446,2.446,0,0,0,1.159-.743,1.715,1.715,0,0,0,.338-1.062,1.841,1.841,0,0,0-.214-.92,1.336,1.336,0,0,0-.63-.566A2.67,2.67,0,0,0,6.52,8.2a2,2,0,0,0-1.531.6,3.162,3.162,0,0,0-.72,1.782L.576,9.235A5.95,5.95,0,0,1,1.6,7.028a4.86,4.86,0,0,1,2-1.534A7.993,7.993,0,0,1,6.79,4.94ZM6.43,17a2.28,2.28,0,0,1,1.587.519,1.872,1.872,0,0,1,.574,1.463,1.842,1.842,0,0,1-.574,1.44,2.28,2.28,0,0,1-1.587.519,2.246,2.246,0,0,1-1.565-.519,1.842,1.842,0,0,1-.574-1.44,1.872,1.872,0,0,1,.574-1.463A2.246,2.246,0,0,1,6.43,17Z" transform="translate(5.424 -0.94)" fill="#fff"/>
  </g>
</svg>
