<svg id="attache" xmlns="http://www.w3.org/2000/svg" width="16" height="16" viewBox="0 0 16 16">
  <path id="Tracé_3689" data-name="Tracé 3689" d="M22.4,3.357a.656.656,0,0,0-.415.148L21.983,3.5,16.919,8.342a2.355,2.355,0,0,0-.812,1.854,2.017,2.017,0,0,0,.65,1.519,2.535,2.535,0,0,0,1.739.6h.015a2.768,2.768,0,0,0,1.933-.779L26.319,5.9a3.222,3.222,0,0,0,.093-4.84,3.889,3.889,0,0,0-5.334,0L13.718,8.12a4.492,4.492,0,0,0,0,6.53,4.964,4.964,0,0,0,6.806,0l7.619-7.337a.619.619,0,0,0,.168-.426.633.633,0,0,0-.646-.62.657.657,0,0,0-.438.167l0,0L19.606,13.77a3.625,3.625,0,0,1-4.97,0,3.28,3.28,0,0,1,0-4.769L22,1.939a2.552,2.552,0,0,1,3.5,0,2,2,0,0,1,.677,1.535,2.286,2.286,0,0,1-.77,1.544l-5.889,5.649a1.451,1.451,0,0,1-1.007.4c-.723,0-1.1-.437-1.1-.868a1.34,1.34,0,0,1,.42-.966L22.9,4.381l-.006-.006a.6.6,0,0,0,.154-.4A.633.633,0,0,0,22.4,3.357Z" transform="translate(-12.311)"/>
</svg>
