<?xml version="1.0" encoding="utf-8"?>
<!-- Generator: Adobe Illustrator 24.1.1, SVG Export Plug-In . SVG Version: 6.00 Build 0)  -->
<svg version="1.1" id="Layer_1" xmlns="http://www.w3.org/2000/svg" xmlns:xlink="http://www.w3.org/1999/xlink" x="0px" y="0px"
	 viewBox="0 0 512 512" style="enable-background:new 0 0 512 512;" xml:space="preserve">
<g>
	<path d="M480,224H32c-17.7,0-32,14.3-32,32c0,17.7,14.3,32,32,32h448c17.7,0,32-14.3,32-32C512,238.3,497.7,224,480,224"/>
	<path d="M278.6,457.4L77.3,256L278.6,54.6c12.5-12.5,12.5-32.8,0-45.3c-12.5-12.5-32.8-12.5-45.3,0l-224,224
		c-6,6-9.4,14.2-9.4,22.6c0,8.4,3.4,16.7,9.4,22.6l224,224c12.5,12.5,32.8,12.5,45.3,0C291.1,490.1,291.1,469.9,278.6,457.4
		L278.6,457.4z"/>
</g>
</svg>
