<svg xmlns="http://www.w3.org/2000/svg" width="24" height="24" viewBox="0 0 24 24">
  <g id="burger" transform="translate(-2.5 -2.497)">
    <path id="Tracé_31922" data-name="Tracé 31922" d="M26.33,7.632,23.125,3.123A1.429,1.429,0,0,0,21.966,2.5h0a1.35,1.35,0,0,0-1.2.815,1.7,1.7,0,0,0,.077,1.579l1.042,1.742H3.847a1.424,1.424,0,0,0-1.333,1.5,1.424,1.424,0,0,0,1.333,1.5h18.03l-1.042,1.742a1.7,1.7,0,0,0-.076,1.578,1.35,1.35,0,0,0,1.2.815h0a1.429,1.429,0,0,0,1.159-.627l3.206-4.509a.879.879,0,0,0,0-1Z" transform="translate(0)"/>
    <path id="Tracé_31923" data-name="Tracé 31923" d="M25.167,19.468H3.833a1.51,1.51,0,0,1,0-3H25.167a1.51,1.51,0,0,1,0,3Z" transform="translate(0 -1.107)"/>
    <path id="Tracé_31924" data-name="Tracé 31924" d="M25.12,28.3H3.88a1.51,1.51,0,0,1,0-3H25.12a1.51,1.51,0,0,1,0,3Z" transform="translate(0 -1.807)"/>
  </g>
</svg>
