<svg xmlns="http://www.w3.org/2000/svg" width="52" height="36" viewBox="0 0 52 36">
  <g id="cb" transform="translate(-60 -549.828)">
    <g id="paiement-par-carte-de-credit" transform="translate(60 374.646)">
      <path id="Tracé_31970" data-name="Tracé 31970" d="M78.734,313.264h5.733V317.5H78.734Z" transform="translate(-69.25 -126.468)" fill="#003753"/>
      <path id="Tracé_31971" data-name="Tracé 31971" d="M48.37,218.167H3.63A3.653,3.653,0,0,0,0,221.843v28.649a3.653,3.653,0,0,0,3.63,3.676H48.37A3.653,3.653,0,0,0,52,250.491V221.843A3.653,3.653,0,0,0,48.37,218.167Z" transform="translate(0 -42.986)" fill="#003753"/>
      <path id="Tracé_133440" data-name="Tracé 133440" d="M19.75,5.2a2.093,2.093,0,0,1-.666,1.393,2.183,2.183,0,0,1-1.49.49,2,2,0,0,1-1.615-.723,2.907,2.907,0,0,1-.607-1.934V3.875a3.241,3.241,0,0,1,.283-1.395,2.115,2.115,0,0,1,.8-.924,2.235,2.235,0,0,1,1.2-.322,2.055,2.055,0,0,1,1.453.506,2.118,2.118,0,0,1,.637,1.4H19a1.627,1.627,0,0,0-.424-.984,1.285,1.285,0,0,0-.912-.3,1.342,1.342,0,0,0-1.127.531,2.437,2.437,0,0,0-.408,1.512v.551a2.505,2.505,0,0,0,.387,1.473,1.25,1.25,0,0,0,1.082.547,1.443,1.443,0,0,0,.959-.283A1.572,1.572,0,0,0,19,5.2ZM20.773,7V1.313h1.859a2.158,2.158,0,0,1,1.393.383,1.38,1.38,0,0,1,.467,1.133,1.155,1.155,0,0,1-.227.705,1.469,1.469,0,0,1-.617.475,1.319,1.319,0,0,1,.729.49,1.407,1.407,0,0,1,.268.861,1.521,1.521,0,0,1-.5,1.2,2.052,2.052,0,0,1-1.4.438Zm.75-2.66V6.387h1.238a1.192,1.192,0,0,0,.826-.271.953.953,0,0,0,.3-.748q0-1.027-1.117-1.027Zm0-.6h1.133a1.189,1.189,0,0,0,.787-.246.824.824,0,0,0,.295-.668.81.81,0,0,0-.273-.682,1.345,1.345,0,0,0-.832-.213H21.523Z" transform="translate(6 197.385)" fill="#fbfbfb"/>
    </g>
    <rect id="Rectangle_339" data-name="Rectangle 339" width="5" height="8" rx="2.5" transform="translate(67 564)" fill="#fff"/>
    <rect id="Rectangle_340" data-name="Rectangle 340" width="52" height="5" transform="translate(60 555)" fill="#fff"/>
  </g>
</svg>
