<svg xmlns="http://www.w3.org/2000/svg" width="52" height="36" viewBox="0 0 52 36">
  <g id="cheques" transform="translate(-213 -549.828)">
    <g id="paiement-par-carte-de-credit" transform="translate(212.5 374.646)">
      <path id="Tracé_31970" data-name="Tracé 31970" d="M78.734,313.264h5.733V317.5H78.734Z" transform="translate(-69.25 -126.468)" fill="#003753"/>
      <path id="Tracé_31971" data-name="Tracé 31971" d="M48.37,218.167H3.63A3.653,3.653,0,0,0,0,221.843v28.649a3.653,3.653,0,0,0,3.63,3.676H48.37A3.653,3.653,0,0,0,52,250.491V221.843A3.653,3.653,0,0,0,48.37,218.167Z" transform="translate(0.5 -42.986)" fill="#003753"/>
      <path id="Tracé_133442" data-name="Tracé 133442" d="M9.258,5.2a2.092,2.092,0,0,1-.666,1.393,2.183,2.183,0,0,1-1.49.49,2,2,0,0,1-1.615-.723,2.907,2.907,0,0,1-.607-1.934V3.875A3.241,3.241,0,0,1,5.162,2.48a2.115,2.115,0,0,1,.8-.924,2.235,2.235,0,0,1,1.2-.322,2.055,2.055,0,0,1,1.453.506,2.118,2.118,0,0,1,.637,1.4H8.5a1.627,1.627,0,0,0-.424-.984,1.285,1.285,0,0,0-.912-.3,1.342,1.342,0,0,0-1.127.531,2.437,2.437,0,0,0-.408,1.512v.551A2.505,2.505,0,0,0,6.02,5.918,1.25,1.25,0,0,0,7.1,6.465a1.443,1.443,0,0,0,.959-.283A1.572,1.572,0,0,0,8.5,5.2Zm1.633-1.91a1.536,1.536,0,0,1,1.25-.59q1.34,0,1.352,1.512V7H12.77V4.2a.973.973,0,0,0-.209-.676.837.837,0,0,0-.639-.219A1.043,1.043,0,0,0,11.3,3.5a1.273,1.273,0,0,0-.414.492V7h-.723V1h.723Zm5.438,3.793a1.847,1.847,0,0,1-1.4-.564A2.1,2.1,0,0,1,14.391,5V4.871a2.536,2.536,0,0,1,.24-1.123,1.874,1.874,0,0,1,.672-.773,1.689,1.689,0,0,1,.936-.279,1.583,1.583,0,0,1,1.281.543,2.351,2.351,0,0,1,.457,1.555v.3H15.113a1.5,1.5,0,0,0,.365,1.01,1.148,1.148,0,0,0,.889.385,1.259,1.259,0,0,0,.648-.156,1.629,1.629,0,0,0,.465-.414l.441.344A1.775,1.775,0,0,1,16.328,7.078Zm-.09-3.789a.964.964,0,0,0-.734.318,1.547,1.547,0,0,0-.367.893h2.117V4.445a1.376,1.376,0,0,0-.3-.854A.908.908,0,0,0,16.238,3.289Zm.41-1.141h-.621L15.02,1h.871Zm1.988,2.7a2.481,2.481,0,0,1,.457-1.576A1.613,1.613,0,0,1,21.5,3.2l.031-.426H22.2V8.625h-.723V6.609a1.517,1.517,0,0,1-1.164.469,1.458,1.458,0,0,1-1.221-.6,2.536,2.536,0,0,1-.455-1.58Zm.723.082a1.881,1.881,0,0,0,.307,1.141.975.975,0,0,0,.826.414,1.082,1.082,0,0,0,.984-.57V3.848a1.086,1.086,0,0,0-.977-.559.983.983,0,0,0-.832.416A2.047,2.047,0,0,0,19.359,4.934Zm6.609,1.648a1.535,1.535,0,0,1-1.238.5A1.314,1.314,0,0,1,23.7,6.686a1.7,1.7,0,0,1-.357-1.162V2.773h.723V5.5q0,.961.781.961a1.082,1.082,0,0,0,1.1-.617V2.773h.723V7h-.687Zm3.555.5a1.847,1.847,0,0,1-1.4-.564A2.1,2.1,0,0,1,27.586,5V4.871a2.536,2.536,0,0,1,.24-1.123,1.874,1.874,0,0,1,.672-.773,1.689,1.689,0,0,1,.936-.279,1.583,1.583,0,0,1,1.281.543,2.351,2.351,0,0,1,.457,1.555v.3H28.309a1.5,1.5,0,0,0,.365,1.01,1.148,1.148,0,0,0,.889.385,1.259,1.259,0,0,0,.648-.156,1.629,1.629,0,0,0,.465-.414l.441.344A1.775,1.775,0,0,1,29.523,7.078Zm-.09-3.789a.964.964,0,0,0-.734.318,1.547,1.547,0,0,0-.367.893h2.117V4.445a1.376,1.376,0,0,0-.3-.854A.908.908,0,0,0,29.434,3.289Zm5.035,2.59a.532.532,0,0,0-.221-.455,2.124,2.124,0,0,0-.77-.279,3.638,3.638,0,0,1-.871-.281,1.239,1.239,0,0,1-.477-.391.934.934,0,0,1-.154-.539,1.1,1.1,0,0,1,.439-.879A1.716,1.716,0,0,1,33.539,2.7a1.766,1.766,0,0,1,1.166.371,1.179,1.179,0,0,1,.447.949h-.727a.652.652,0,0,0-.252-.512.944.944,0,0,0-.635-.215.988.988,0,0,0-.617.172.541.541,0,0,0-.223.449.438.438,0,0,0,.207.395,2.547,2.547,0,0,0,.748.254,3.9,3.9,0,0,1,.877.289,1.279,1.279,0,0,1,.5.4.994.994,0,0,1,.162.576,1.082,1.082,0,0,1-.453.908,1.9,1.9,0,0,1-1.176.342,2.128,2.128,0,0,1-.9-.18,1.461,1.461,0,0,1-.611-.5,1.21,1.21,0,0,1-.221-.7h.723a.748.748,0,0,0,.291.576,1.129,1.129,0,0,0,.717.213,1.165,1.165,0,0,0,.658-.166A.51.51,0,0,0,34.469,5.879Z" transform="translate(6.5 197.385)" fill="#fbfbfb"/>
    </g>
    <line id="Ligne_24" data-name="Ligne 24" x2="19" transform="translate(218.5 559.5)" fill="none" stroke="#fff" stroke-linecap="round" stroke-width="2"/>
    <line id="Ligne_25" data-name="Ligne 25" x2="19" transform="translate(218.5 564.5)" fill="none" stroke="#fff" stroke-linecap="round" stroke-width="2"/>
    <path id="Tracé_133427" data-name="Tracé 133427" d="M115.066,134.374a2.6,2.6,0,0,1,2.266,1.517.562.562,0,1,0,1-.509,3.72,3.72,0,0,0-3.268-2.131,3.773,3.773,0,0,0-3.431,2.488h-.9a.562.562,0,1,0,0,1.124h.612a4.725,4.725,0,0,0-.038.6q0,.216.019.427h-.833a.562.562,0,0,0,0,1.124h1.078a3.8,3.8,0,0,0,3.5,2.66,3.72,3.72,0,0,0,3.268-2.132.562.562,0,0,0-1-.509,2.455,2.455,0,0,1-4.545-.019h2.4a.562.562,0,0,0,0-1.124h-2.731a3.611,3.611,0,0,1,.025-1.025h2.946a.562.562,0,1,0,0-1.124h-2.546A2.559,2.559,0,0,1,115.066,134.374Z" transform="translate(140.069 424.33)" fill="#fcfcfc"/>
  </g>
</svg>
