<svg xmlns="http://www.w3.org/2000/svg" width="22" height="22" viewBox="0 0 22 22">
  <g id="cle" transform="translate(-0.001 0)">
    <g id="Groupe_671" data-name="Groupe 671" transform="translate(0.001 0)">
      <path id="Tracé_31949" data-name="Tracé 31949" d="M19.928,2.073a7.086,7.086,0,0,0-11.753,7.2L.19,17.253A.644.644,0,0,0,0,17.709v3.646A.644.644,0,0,0,.646,22H4.292a.644.644,0,0,0,.456-.189l.911-.912a.645.645,0,0,0,.184-.53l-.113-.979,1.357-.128a.643.643,0,0,0,.581-.581L7.8,17.323l.979.114a.634.634,0,0,0,.5-.159.646.646,0,0,0,.216-.482V15.6h1.178a.644.644,0,0,0,.456-.189l1.653-1.631A6.98,6.98,0,0,0,19.928,12.1,7.1,7.1,0,0,0,19.928,2.073ZM18.1,6.631a1.933,1.933,0,1,1,0-2.734A1.935,1.935,0,0,1,18.1,6.631Z" transform="translate(-0.001 0.001)" fill="#003753"/>
    </g>
  </g>
</svg>
