<svg xmlns="http://www.w3.org/2000/svg" width="52" height="36" viewBox="0 0 52 36">
  <g id="especes" transform="translate(-137.5 -549.828)">
    <g id="paiement-par-carte-de-credit" transform="translate(137.5 374.646)">
      <path id="Tracé_31970" data-name="Tracé 31970" d="M78.734,313.264h5.733V317.5H78.734Z" transform="translate(-69.25 -126.468)" fill="#003753"/>
      <path id="Tracé_31971" data-name="Tracé 31971" d="M48.37,218.167H3.63A3.653,3.653,0,0,0,0,221.843v28.649a3.653,3.653,0,0,0,3.63,3.676H48.37A3.653,3.653,0,0,0,52,250.491V221.843A3.653,3.653,0,0,0,48.37,218.167Z" transform="translate(0 -42.986)" fill="#003753"/>
    </g>
    <path id="Tracé_133426" data-name="Tracé 133426" d="M118.135,135.045a4.16,4.16,0,0,1,3.62,2.423.9.9,0,1,0,1.6-.813,5.944,5.944,0,0,0-5.221-3.405,6.028,6.028,0,0,0-5.481,3.975h-1.443a.9.9,0,1,0,0,1.8h.978a7.546,7.546,0,0,0-.061.956q0,.345.031.682h-1.33a.9.9,0,0,0,0,1.8h1.722a6.07,6.07,0,0,0,5.585,4.249,5.943,5.943,0,0,0,5.221-3.406.9.9,0,0,0-1.6-.813,3.922,3.922,0,0,1-7.261-.031h3.833a.9.9,0,0,0,0-1.8h-4.364A5.769,5.769,0,0,1,114,139.02h4.706a.9.9,0,1,0,0-1.8h-4.068A4.088,4.088,0,0,1,118.135,135.045Z" transform="translate(47.069 422.33)" fill="#fcfcfc"/>
    <path id="Tracé_133441" data-name="Tracé 133441" d="M8.9,4.371H6.436V6.387H9.3V7H5.686V1.313H9.26V1.93H6.436V3.758H8.9Zm3.68,1.508a.532.532,0,0,0-.221-.455,2.124,2.124,0,0,0-.77-.279,3.638,3.638,0,0,1-.871-.281,1.239,1.239,0,0,1-.477-.391.934.934,0,0,1-.154-.539,1.1,1.1,0,0,1,.439-.879A1.716,1.716,0,0,1,11.65,2.7a1.766,1.766,0,0,1,1.166.371,1.179,1.179,0,0,1,.447.949h-.727a.652.652,0,0,0-.252-.512.944.944,0,0,0-.635-.215.988.988,0,0,0-.617.172.541.541,0,0,0-.223.449.438.438,0,0,0,.207.395,2.547,2.547,0,0,0,.748.254,3.9,3.9,0,0,1,.877.289,1.279,1.279,0,0,1,.5.4.994.994,0,0,1,.162.576,1.082,1.082,0,0,1-.453.908,1.9,1.9,0,0,1-1.176.342,2.128,2.128,0,0,1-.9-.18,1.461,1.461,0,0,1-.611-.5,1.21,1.21,0,0,1-.221-.7h.723a.748.748,0,0,0,.291.576,1.129,1.129,0,0,0,.717.213,1.165,1.165,0,0,0,.658-.166A.51.51,0,0,0,12.58,5.879Zm5.234-.945a2.531,2.531,0,0,1-.441,1.555,1.415,1.415,0,0,1-1.2.59,1.55,1.55,0,0,1-1.211-.488V8.625h-.723V2.773h.66l.035.469A1.489,1.489,0,0,1,16.166,2.7a1.441,1.441,0,0,1,1.205.574,2.558,2.558,0,0,1,.443,1.6Zm-.723-.082a1.867,1.867,0,0,0-.3-1.129.982.982,0,0,0-.836-.414,1.062,1.062,0,0,0-.984.582V5.91a1.064,1.064,0,0,0,.992.578.977.977,0,0,0,.826-.412A2.038,2.038,0,0,0,17.092,4.852Zm3.395,2.227a1.847,1.847,0,0,1-1.4-.564A2.1,2.1,0,0,1,18.549,5V4.871a2.536,2.536,0,0,1,.24-1.123,1.874,1.874,0,0,1,.672-.773A1.689,1.689,0,0,1,20.4,2.7a1.583,1.583,0,0,1,1.281.543,2.351,2.351,0,0,1,.457,1.555v.3H19.271a1.5,1.5,0,0,0,.365,1.01,1.148,1.148,0,0,0,.889.385,1.259,1.259,0,0,0,.648-.156,1.629,1.629,0,0,0,.465-.414l.441.344A1.775,1.775,0,0,1,20.486,7.078ZM20.4,3.289a.964.964,0,0,0-.734.318,1.547,1.547,0,0,0-.367.893h2.117V4.445a1.376,1.376,0,0,0-.3-.854A.908.908,0,0,0,20.4,3.289Zm.41-1.141h-.621L19.178,1h.871Zm3.859,4.34a1.041,1.041,0,0,0,.676-.234.825.825,0,0,0,.32-.586h.684a1.31,1.31,0,0,1-.25.691,1.647,1.647,0,0,1-.615.523,1.775,1.775,0,0,1-.814.2A1.741,1.741,0,0,1,23.293,6.5a2.3,2.3,0,0,1-.51-1.576V4.8a2.545,2.545,0,0,1,.227-1.1,1.726,1.726,0,0,1,.65-.746,1.848,1.848,0,0,1,1-.266,1.7,1.7,0,0,1,1.182.426,1.522,1.522,0,0,1,.5,1.105h-.684a1,1,0,0,0-.311-.674.966.966,0,0,0-.689-.264,1.011,1.011,0,0,0-.854.4,1.862,1.862,0,0,0-.3,1.146v.137a1.825,1.825,0,0,0,.3,1.125A1.016,1.016,0,0,0,24.666,6.488Zm4.246.59a1.847,1.847,0,0,1-1.4-.564A2.1,2.1,0,0,1,26.975,5V4.871a2.536,2.536,0,0,1,.24-1.123,1.874,1.874,0,0,1,.672-.773,1.689,1.689,0,0,1,.936-.279,1.583,1.583,0,0,1,1.281.543,2.351,2.351,0,0,1,.457,1.555v.3H27.7a1.5,1.5,0,0,0,.365,1.01,1.148,1.148,0,0,0,.889.385,1.259,1.259,0,0,0,.648-.156,1.629,1.629,0,0,0,.465-.414l.441.344A1.775,1.775,0,0,1,28.912,7.078Zm-.09-3.789a.964.964,0,0,0-.734.318,1.547,1.547,0,0,0-.367.893h2.117V4.445a1.376,1.376,0,0,0-.3-.854A.908.908,0,0,0,28.822,3.289Zm5.035,2.59a.532.532,0,0,0-.221-.455,2.124,2.124,0,0,0-.77-.279A3.638,3.638,0,0,1,32,4.863a1.239,1.239,0,0,1-.477-.391.934.934,0,0,1-.154-.539,1.1,1.1,0,0,1,.439-.879A1.716,1.716,0,0,1,32.928,2.7a1.766,1.766,0,0,1,1.166.371,1.179,1.179,0,0,1,.447.949h-.727a.652.652,0,0,0-.252-.512.944.944,0,0,0-.635-.215.988.988,0,0,0-.617.172.541.541,0,0,0-.223.449.438.438,0,0,0,.207.395,2.547,2.547,0,0,0,.748.254,3.9,3.9,0,0,1,.877.289,1.279,1.279,0,0,1,.5.4.994.994,0,0,1,.162.576,1.082,1.082,0,0,1-.453.908,1.9,1.9,0,0,1-1.176.342,2.128,2.128,0,0,1-.9-.18,1.461,1.461,0,0,1-.611-.5,1.21,1.21,0,0,1-.221-.7h.723a.748.748,0,0,0,.291.576,1.129,1.129,0,0,0,.717.213,1.165,1.165,0,0,0,.658-.166A.51.51,0,0,0,33.857,5.879Z" transform="translate(144 572.032)" fill="#fbfbfb"/>
  </g>
</svg>
