<svg xmlns="http://www.w3.org/2000/svg" width="22" height="18.999" viewBox="0 0 22 18.999">
  <g id="Line" transform="translate(-2 -5.002)">
    <path id="Tracé_133428" data-name="Tracé 133428" d="M2.5,31.07h21a.5.5,0,0,0,.5-.5v-3.52a.5.5,0,0,0-.5-.5h-1a1.509,1.509,0,0,1,0-3.018h1a.5.5,0,0,0,.5-.5V19.5a.5.5,0,0,0-.5-.5H2.5a.5.5,0,0,0-.5.5v3.52a.5.5,0,0,0,.5.5h1a1.509,1.509,0,0,1,0,3.018h-1a.5.5,0,0,0-.5.5v3.52A.5.5,0,0,0,2.5,31.07ZM17,21.515a.5.5,0,1,1,1,0V22.52a.5.5,0,1,1-1,0Zm0,3.018a.5.5,0,1,1,1,0v1.006a.5.5,0,1,1-1,0Zm0,3.018a.5.5,0,1,1,1,0v1.006a.5.5,0,1,1-1,0ZM8.5,22.018h6a.5.5,0,0,1,0,1.006h-6a.5.5,0,0,1,0-1.006Zm0,2.515h6a.5.5,0,0,1,0,1.006h-6a.5.5,0,0,1,0-1.006Zm0,2.515h6a.5.5,0,0,1,0,1.006h-6a.5.5,0,0,1,0-1.006Z" transform="translate(0 -7.069)" fill="#003753"/>
    <path id="Tracé_133429" data-name="Tracé 133429" d="M7.866,5.313,6.539,8.567a.476.476,0,0,0,0,.387.5.5,0,0,0,.269.272l.938.382a1.509,1.509,0,0,1,.908,1.428H22.962L8.52,5.041a.5.5,0,0,0-.383,0,.5.5,0,0,0-.271.273Z" transform="translate(-2.236 0)" fill="#003753"/>
  </g>
</svg>
