<svg xmlns="http://www.w3.org/2000/svg" width="220.275" height="185.688" viewBox="0 0 220.275 185.688">
  <g id="militaire-forme-orange" transform="translate(0 529.12)" opacity="0.5">
    <path id="Tracé_952" data-name="Tracé 952" d="M92.01-385.29a17.569,17.569,0,0,0,24.847,0l98.273-98.271a17.572,17.572,0,0,0,0-24.848l-.457-.457a17.572,17.572,0,0,0-24.849,0l-36.712,36.711a17.568,17.568,0,0,1-24.846,0,17.57,17.57,0,0,1,0-24.847l1.667-1.668a17.571,17.571,0,0,0,0-24.848l-.457-.457a17.568,17.568,0,0,0-24.846,0L6.357-425.7a17.571,17.571,0,0,0,0,24.848l.456.457a17.571,17.571,0,0,1,0,24.848l-1.667,1.668a17.569,17.569,0,0,0,0,24.848l.456.456a17.568,17.568,0,0,0,24.846,0L67.161-385.29A17.572,17.572,0,0,1,92.01-385.29Z" fill="#fb8500"/>
  </g>
</svg>
