<svg xmlns="http://www.w3.org/2000/svg" width="156.791" height="215.198" viewBox="0 0 156.791 215.198">
  <g id="militaire-forme-bleu" transform="translate(-30 817.554)" opacity="0.5">
    <path id="Tracé_955" data-name="Tracé 955" d="M51.421-658.594h0a14.512,14.512,0,0,1,0,18.777l-15.343,17.31a14.509,14.509,0,0,0,0,18.775v0a10.847,10.847,0,0,0,16.64,0l64.322-72.579a14.51,14.51,0,0,0,0-18.776,14.509,14.509,0,0,1,0-18.775l15.343-17.312a14.51,14.51,0,0,0,0-18.776,14.509,14.509,0,0,1,0-18.776l20.962-23.652a14.51,14.51,0,0,0,0-18.776,10.845,10.845,0,0,0-16.64,0L82.247-749.7a10.845,10.845,0,0,1-16.64,0,10.845,10.845,0,0,0-16.64,0L3.446-698.34a14.51,14.51,0,0,0,0,18.776,10.845,10.845,0,0,0,16.64,0L44.755-707.4a10.845,10.845,0,0,1,16.64,0h0a14.51,14.51,0,0,1,0,18.775L51.421-677.37A14.509,14.509,0,0,0,51.421-658.594Z" transform="translate(30 -2.515)" fill="#023047"/>
  </g>
</svg>
