<svg xmlns="http://www.w3.org/2000/svg" width="24" height="24" viewBox="0 0 24 24">
  <g id="modif" transform="translate(4 4)">
    <rect id="Rectangle_275" data-name="Rectangle 275" width="24" height="24" rx="4" transform="translate(-4 -4)" fill="#00aac7"/>
    <path id="Tracé_13891" data-name="Tracé 13891" d="M9.985,82.473l-8.9,8.9A.355.355,0,0,0,1,91.532L.01,95.49a.35.35,0,0,0,.424.424l3.958-.986a.35.35,0,0,0,.162-.092l8.9-8.9Zm0,0" transform="translate(0 -79.925)" fill="#fff"/>
    <path id="Tracé_13892" data-name="Tracé 13892" d="M339.008,1.733l-.99-.99a1.793,1.793,0,0,0-2.477,0l-1.213,1.213,3.467,3.467,1.213-1.213a1.752,1.752,0,0,0,0-2.476Zm0,0" transform="translate(-323.521 -0.247)" fill="#fff"/>
  </g>
</svg>
