<svg xmlns="http://www.w3.org/2000/svg" width="24" height="24" viewBox="0 0 24 24">
  <g id="parametres" transform="translate(3 5)">
    <rect id="Rectangle_275" data-name="Rectangle 275" width="24" height="24" rx="4" transform="translate(-3 -5)" fill="#00aac7"/>
    <path id="Tracé_13867" data-name="Tracé 13867" d="M3.615,7.867H6.077A1.345,1.345,0,0,0,7.308,9.3H8.538A1.345,1.345,0,0,0,9.769,7.867h8.615A.672.672,0,0,0,19,7.15a.672.672,0,0,0-.615-.717H9.769A1.345,1.345,0,0,0,8.538,5H7.308A1.345,1.345,0,0,0,6.077,6.433H3.615A.672.672,0,0,0,3,7.15.672.672,0,0,0,3.615,7.867Z" transform="translate(-2 -5)" fill="#fff"/>
    <path id="Tracé_13868" data-name="Tracé 13868" d="M18.385,14.433H14.692A1.345,1.345,0,0,0,13.462,13H12.231A1.345,1.345,0,0,0,11,14.433H3.615a.725.725,0,0,0,0,1.433H11A1.345,1.345,0,0,0,12.231,17.3h1.231a1.345,1.345,0,0,0,1.231-1.433h3.692a.725.725,0,0,0,0-1.433Z" transform="translate(-2 -8.039)" fill="#fff"/>
    <path id="Tracé_13869" data-name="Tracé 13869" d="M18.385,22.433H9.769A1.345,1.345,0,0,0,8.538,21H7.308a1.345,1.345,0,0,0-1.231,1.433H3.615a.725.725,0,0,0,0,1.433H6.077A1.345,1.345,0,0,0,7.308,25.3H8.538a1.345,1.345,0,0,0,1.231-1.433h8.615a.725.725,0,0,0,0-1.433Z" transform="translate(-2 -11.078)" fill="#fff"/>
  </g>
</svg>
