<svg xmlns="http://www.w3.org/2000/svg" width="22" height="24" viewBox="0 0 22 24">
  <g id="shopping" transform="translate(-4.981 -2.011)">
    <path id="Tracé_31946" data-name="Tracé 31946" d="M11.94,15.17a.407.407,0,0,1,.407-.355h9.008l-.421-5.627a.405.405,0,0,0-.408-.371H18.067V6.4a4.491,4.491,0,0,0-8.979,0V8.817H6.623a.405.405,0,0,0-.408.371L4.988,25.578a.354.354,0,0,0,.091.318.373.373,0,0,0,.318.112h5.3ZM18.479,12a.819.819,0,1,1-.819-.8A.809.809,0,0,1,18.479,12ZM9.908,6.4a3.671,3.671,0,0,1,7.341,0V8.817H9.908Zm-.42,6.4a.8.8,0,1,1,.819-.8.809.809,0,0,1-.819.8Z" transform="translate(0)" fill="#003753"/>
    <circle id="Ellipse_47" data-name="Ellipse 47" cx="0.4" cy="0.4" r="0.4" transform="translate(14.749 18.012)" fill="#003753"/>
    <circle id="Ellipse_48" data-name="Ellipse 48" cx="0.4" cy="0.4" r="0.4" transform="translate(23.025 18.012)" fill="#003753"/>
    <path id="Tracé_31947" data-name="Tracé 31947" d="M36.165,45.967l-1.078-9.593a.4.4,0,0,0-.4-.355H22.474a.407.407,0,0,0-.4.362L20.942,46.411H35.768a.359.359,0,0,0,.4-.445Zm-3.219-6a4.385,4.385,0,0,1-8.755-.01,1.195,1.195,0,1,1,.8-.025,3.586,3.586,0,0,0,7.159-.011,1.207,1.207,0,1,1,.8.046Z" transform="translate(-9.196 -20.404)" fill="#003753"/>
  </g>
</svg>
