<svg xmlns="http://www.w3.org/2000/svg" width="24" height="24" viewBox="0 0 24 24">
  <g id="user-bleu" transform="translate(-3 -3)">
    <path id="Tracé_2161" data-name="Tracé 2161" d="M11.609,15.044A6.01,6.01,0,0,0,15.3,16.308a6.624,6.624,0,0,0,6.3-6.654A6.49,6.49,0,0,0,15.3,3,6.49,6.49,0,0,0,9,9.654,6.757,6.757,0,0,0,11.609,15.044Z" transform="translate(-0.296 0)" fill="#003753"/>
    <path id="Tracé_2162" data-name="Tracé 2162" d="M20.686,16.55a8.106,8.106,0,0,1-11.372,0A12.432,12.432,0,0,0,3,27.434a.94.94,0,0,0,.923.951H26.077A.94.94,0,0,0,27,27.434,12.432,12.432,0,0,0,20.686,16.55Z" transform="translate(0 -1.385)" fill="#003753"/>
  </g>
</svg>
